<?xml version="1.0" encoding="utf-8" ?>
<svg xmlns="http://www.w3.org/2000/svg" xmlns:xlink="http://www.w3.org/1999/xlink" width="2048" height="1024">
	<path fill="#FEFEFE" d="M0 0L2046.25 0C2048.75 3.75313 2047.99 9.76244 2047.99 14.1208L2048.02 767.612L2048.01 954.147C2048.01 967.073 2049.66 1011.74 2047.62 1020.8C2047.36 1021.98 2046.85 1022.96 2046.25 1024L0 1024L0 0Z"/>
	<path fill="#E4E3E1" d="M442.248 698.015C448.658 700.233 513.8 697.037 525.495 696.946Q606.453 696.199 687.403 697.588C710.908 697.978 734.665 700.107 758.12 699.684C771.68 713.986 785.88 723.084 806.165 723.684C828.787 724.353 850.025 715.869 869.183 704.58C876.965 708.437 901.32 709.678 913.379 714.145C916.738 715.389 920.133 716.777 921.684 720.238C921.456 721.626 921.549 722.447 920.5 723.465C909.822 733.821 845.448 737.655 829.034 738.778Q773.73 742.017 718.359 743.802Q662.989 745.586 607.591 745.916Q552.192 746.245 496.805 745.119Q441.417 743.992 386.078 741.411C367.319 740.538 288 737.445 275.595 723.84C275.162 722.081 274.71 721.309 275.668 719.63C280.21 711.675 313.604 707.764 323.017 704.846L323.797 704.6C349.089 719.595 375.591 727.328 405.187 723.619C422.016 719.701 432.802 712.693 442.248 698.015Z"/>
	<path fill="#BB463E" d="M1209.32 524.729C1208.22 519.905 1202.14 515.126 1199.14 511.139Q1197.79 509.355 1196.5 507.521Q1195.22 505.686 1194.01 503.805Q1192.79 501.923 1191.65 499.997Q1190.51 498.07 1189.45 496.102Q1188.38 494.134 1187.39 492.127Q1186.4 490.119 1185.48 488.076Q1184.57 486.032 1183.73 483.956Q1182.9 481.879 1182.14 479.772Q1181.38 477.665 1180.71 475.531Q1180.03 473.397 1179.44 471.238Q1178.84 469.08 1178.33 466.901Q1177.82 464.721 1177.39 462.524Q1176.96 460.327 1176.61 458.115Q1176.27 455.903 1176.01 453.68Q1175.75 451.456 1175.57 449.225Q1175.39 446.993 1175.3 444.756C1173.86 413.343 1185.49 383.517 1206.56 360.436C1229.72 335.079 1263.42 321.04 1297.5 319.639C1332.34 318.207 1366.97 329.486 1392.74 353.31C1400.52 360.501 1417.16 377.912 1417.6 389.088C1428.56 403.571 1429.72 433.781 1427.32 451.061C1426.75 455.141 1426.15 460.381 1423.8 463.779C1424.9 475.156 1409.81 499.393 1402.66 508.129C1379.59 536.309 1346 552.46 1310.01 555.867Q1306.84 556.192 1303.66 556.15C1294.77 556.046 1285.87 555.37 1276.99 554.862C1271.85 550.966 1255.06 551.356 1248.06 549.323C1237.4 546.23 1228.39 537.548 1219.3 531.49L1002.3 531.332C995.2 531.288 988.142 532.25 981.059 532.226C964.371 532.17 947.519 531.038 930.853 530.197C922.768 529.789 913.695 530.042 905.818 528.176L905.465 527.325C906.29 525.969 908.492 525.288 909.924 524.634Q987.417 524.177 1064.91 524.539C1113.01 524.495 1161.24 523.555 1209.32 524.729Z"/>
	<path fill="#B0322E" d="M1219.58 471.237C1224.22 459.715 1218.18 443.362 1225.91 432.899L1227.06 432.94C1226.73 442.395 1227.56 467.092 1223.44 474.825C1223.52 475.052 1223.59 475.278 1223.66 475.506C1225.09 480.182 1222.28 488.072 1227.18 490.732C1234.4 494.657 1259.99 492.969 1269.63 494.197C1278.46 495.322 1287.22 498.362 1295.98 500.034C1306.79 502.095 1344.5 507.215 1353.91 504.583L1354.91 503.773L1356.07 505.541C1355.44 506.867 1354.91 507.668 1353.63 508.448C1347.46 512.184 1303.51 507.2 1294.54 505.838C1284.44 504.302 1274.53 501.314 1264.37 500.153C1249.76 498.482 1234.6 499.754 1220.28 495.966C1218.26 488.642 1220.02 479.016 1219.58 471.237Z"/>
	<path fill="#FEFEFE" d="M1260.92 431.012C1261.11 430.879 1261.31 430.749 1261.49 430.613C1275.24 420.663 1287.46 395.314 1289.81 378.435C1290.59 372.805 1289.37 358.75 1291.9 354.899C1298.01 352.701 1305.37 351.012 1311.55 353.943C1315.16 355.656 1317.72 358.733 1318.98 362.499C1322.14 371.89 1316.6 398.115 1312.33 407.175C1311.95 407.982 1311.53 408.41 1310.93 409.052C1325.66 409.72 1358.34 408.819 1370.82 412.853C1374.05 413.899 1376.3 415.584 1378.55 418.091C1380.1 419.825 1380.88 421.502 1381.61 423.7C1380.69 430.303 1371.52 434.75 1371.52 437.489C1371.54 444.21 1380.39 450.11 1371.93 456.618C1369.44 458.526 1366.2 459.297 1365.17 462.311C1366.63 466.69 1368.35 470.816 1367.21 475.466C1367.14 475.757 1367.09 476.054 1367 476.342C1365.78 480.384 1360.47 480.784 1358.85 484.738C1355.97 491.793 1365.13 497.502 1354.91 503.773L1353.91 504.583C1344.5 507.215 1306.79 502.095 1295.98 500.034C1287.22 498.362 1278.46 495.322 1269.63 494.197C1259.99 492.969 1234.4 494.657 1227.18 490.732C1222.28 488.072 1225.09 480.182 1223.66 475.506C1223.59 475.278 1223.52 475.052 1223.44 474.825C1227.56 467.092 1226.73 442.395 1227.06 432.94C1237.42 430.478 1250.26 431.222 1260.92 431.012Z"/>
	<path fill="#102C42" d="M409.457 319.853C413.545 317.382 418.147 315.688 422.757 314.478C441.046 309.679 470.343 308.016 487.139 318.14C496.008 323.486 497.28 332.769 499.706 342.06C510.799 347.69 521.309 353.523 529.379 363.232C531.861 365.131 532.678 365.603 535.753 365.889C544.429 366.696 553.671 366.099 562.397 366.097L613.494 366.076C627.849 366.066 655.809 367.661 668.717 365.856C669.116 365.801 669.742 365.644 670.102 365.561C680.121 355.754 691.976 346.748 704.283 340.017C706.547 332.305 708.394 323.085 715.97 318.781C732.081 309.628 765.889 310.773 783.283 316.075C790.026 318.131 795.517 321.118 798.834 327.631C800.685 331.265 801.985 335.8 802.978 339.749C839.348 356.545 857.979 386.416 871.427 422.957C883.755 456.454 893.585 490.652 902.992 525.052C885.825 526.23 868.126 525.22 850.917 524.861C859.033 522.356 871.926 523.52 881.21 521.608C881.447 521.01 881.612 520.626 881.613 519.972C881.627 511.53 874.942 495.748 872.312 487.182C867.024 469.956 851.963 411.674 840.467 400.019C827.441 376.589 809.798 360.083 784.331 351.161C781.964 350.245 779.358 349.721 776.901 349.067C761.484 346.107 746.155 345.133 730.922 349.724C726.595 351.263 714.4 354.597 711.762 358.013L711.483 362.083C700.446 368.914 692.008 376.185 684.457 386.802C682.135 388.742 680.145 390.733 677.036 391.156C655.797 390.349 634.517 391.44 613.279 390.675C585.803 391.542 558.281 390.257 530.814 391.414C527.782 389.988 526.719 387.631 524.799 384.925C513.465 369.447 500.835 358.035 482.354 351.762C481.783 347.657 481.441 342.975 479.916 339.115C478.481 335.485 475.426 333.25 471.942 331.779C458.288 326.012 436.549 328.291 423.085 333.535C421.047 338.234 421.439 343.891 419.308 348.235C417.8 351.311 414.749 351.935 411.813 353.247C398.137 359.116 385.908 367.341 376.672 379.184C371.53 384.911 367.616 391.863 364.347 398.808C358.005 409.692 353.387 422.279 348.864 434.026C328.872 485.96 318.177 539.025 311.826 594.154C309.507 614.288 305.803 635.871 311.042 655.811C312.889 662.839 315.9 670.666 320.475 676.362C323.907 677.073 327.522 680.901 330.564 682.844C349.744 695.093 379.126 703.891 401.802 698.541C405.767 697.606 409.888 696.35 412.776 693.33C421.306 684.408 427.197 670.679 433.426 660.027C448.808 633.724 463.648 607.07 479.409 580.996C502.195 586.675 535.86 595.535 557.811 582.889C566.796 577.712 576.158 566.943 579.34 556.786C580.753 552.276 581.131 547.433 582.51 542.916C583.296 540.341 583.93 539.368 586.28 538.143C588.893 538.7 589.92 540.123 591.607 542.03C593.364 538.464 594.83 534.7 596.408 531.047C602.685 530.905 608.904 530.763 615.176 531.179C620.462 534.546 702.443 534.309 710.731 532.946C712.534 531.543 712.26 529.559 712.545 527.365C713.357 528.873 713.677 529.926 715.272 530.783C719.935 533.288 812.137 531.419 820.602 530.547C824.486 530.147 826.233 525.891 829.627 524.934C829.894 524.859 830.166 524.8 830.435 524.733C833.493 533.59 839.371 546.071 840.113 555.103C837.367 555.41 834.647 555.625 831.887 555.752C836.34 555.696 840.606 554.721 843.984 557.871L845.226 563.788L847.218 562.927L846.198 566.851C850.298 568.496 851.958 568.798 853.748 573.119C856.781 580.441 858.184 588.383 860.278 596.004L858.64 596.753L857.997 599.086C856.805 597.527 855.95 595.943 855.064 594.194L854.503 594.462C855.513 599.063 861.362 616.33 859.246 619.716C861.78 629.217 864.48 639.689 868.331 648.721C876.882 648.693 902.683 646.876 909.625 649.791C901.035 672.253 888.299 689.915 869.183 704.58C850.025 715.869 828.787 724.353 806.165 723.684C785.88 723.084 771.68 713.986 758.12 699.684C734.665 700.107 710.908 697.978 687.403 697.588Q606.453 696.199 525.495 696.946C513.8 697.037 448.658 700.233 442.248 698.015C432.802 712.693 422.016 719.701 405.187 723.619C375.591 727.328 349.089 719.595 323.797 704.6C317.123 699.265 311.029 693.585 306.042 686.601C283.438 654.952 290.434 614.048 296.295 578.132C297.668 542.748 311.568 490.091 322.307 455.796C337.47 407.371 353.617 363.556 401.115 338.708C403.457 332.217 405.767 325.718 409.457 319.853Z"/>
	<path fill="#071D2F" d="M808.644 558.791L809.829 555.509L810.969 555.017C811.784 558.132 811.84 561.123 811.912 564.321C815.745 565.102 819.32 565.099 823.22 564.996C821.965 574.668 824.217 588.409 822.164 596.873C822.02 590.271 823.455 572.983 818.743 568.419C815.804 567.54 812.978 567.866 810.136 569.259C809.598 569.523 809.167 569.855 808.671 570.197L808.644 558.791Z"/>
	<path fill="#071D2F" d="M670.369 556.072C672.104 555.196 672.295 555.215 674.175 555.839C679.749 557.689 681.728 564.409 687.676 565.347L686.326 570.226C686.271 570.359 686.211 570.49 686.16 570.624C684.515 575.028 685.451 582.883 685.462 587.721L684.47 584.475C681.576 587.615 678.753 591.049 675.261 593.536L674.981 591.821C676.557 589.965 678.203 588.001 679.504 585.938C682.128 581.776 684.306 575.366 683.011 570.421C681.128 563.236 676.529 559.568 670.369 556.072Z"/>
	<path fill="#071D2F" d="M642.334 560.241C645.421 560.798 647.178 560.781 650.164 559.717L650.14 560.741L650.024 561.686C648.85 571.718 652.421 586.635 643.269 593.743C639.205 596.901 629.888 598.034 624.969 597.206C624.659 597.154 624.353 597.089 624.045 597.031C625.007 592.966 634.308 593.338 640.068 589.604C643.685 587.26 647.042 584.019 647.868 579.595C648.992 573.579 645.751 565.032 642.334 560.241Z"/>
	<path fill="#071D2F" d="M716.569 562.33C718.49 563.388 720.205 564.416 721.861 565.862L721.889 563.694L722.54 563.863C724.137 575.156 724.259 600.547 722.107 611.623C721.139 604.311 721.702 596.713 721.905 589.35C721.571 598.578 723.141 610.204 715.723 617.041C712.925 619.62 709.46 621.121 706.024 622.655C698.922 621.565 693.695 620.299 687.542 616.347C687.216 615.774 686.9 615.194 686.643 614.585C685.593 612.099 685.139 609.412 686.176 606.866C689.182 612.313 693.129 616.25 698.891 618.837C701.525 620.019 704.467 620.227 707.158 619.047C712.239 616.82 715.637 611.708 717.4 606.636C720.863 596.666 721.173 571.784 716.569 562.33Z"/>
	<path fill="#FEFEFE" d="M808.671 570.197L808.905 605.122C808.921 608.713 809.419 614.017 806.801 616.66C804.295 616.872 802.13 617.065 799.652 616.427C799.368 615.698 799.109 614.937 798.993 614.161C798.09 608.1 798.166 558.822 800.492 555.737C803.112 555.528 805.269 555.277 807.782 556.284L808.644 558.791L808.671 570.197Z"/>
	<path fill="#FEFEFE" d="M831.887 555.752C836.34 555.696 840.606 554.721 843.984 557.871L845.226 563.788C841.508 565.712 837.63 563.932 834.125 566.032L833.596 568.98C833.738 580.586 835.9 605.704 833.233 616.209C830.117 617.072 827.745 617.018 824.552 616.698C821.687 608.803 824.923 577.878 823.343 565.884L823.22 564.996C819.32 565.099 815.745 565.102 811.912 564.321C812.236 561.303 812.055 559.405 813.863 556.926C818.98 554.475 826.217 555.746 831.887 555.752Z"/>
	<path fill="#030A11" d="M845.226 563.788L847.218 562.927L846.198 566.851C850.298 568.496 851.958 568.798 853.748 573.119C856.781 580.441 858.184 588.383 860.278 596.004L858.64 596.753L857.997 599.086C856.805 597.527 855.95 595.943 855.064 594.194L854.503 594.462C855.513 599.063 861.362 616.33 859.246 619.716C861.78 629.217 864.48 639.689 868.331 648.721C865.7 648.513 863.03 648.338 860.991 646.436C849.145 635.388 847.658 583.238 833.596 568.98L834.125 566.032C837.63 563.932 841.508 565.712 845.226 563.788Z"/>
	<path fill="#BB463E" d="M859.246 619.716C853.793 606.046 849.867 590.354 846.71 575.958C846.108 573.212 844.687 569.214 846.198 566.851C850.298 568.496 851.958 568.798 853.748 573.119C856.781 580.441 858.184 588.383 860.278 596.004L858.64 596.753L857.997 599.086C856.805 597.527 855.95 595.943 855.064 594.194L854.503 594.462C855.513 599.063 861.362 616.33 859.246 619.716Z"/>
	<path fill="#415F76" d="M722.581 350.774C722.961 345.922 723.629 340.215 726.536 336.166C729.303 332.313 732.864 331.013 737.39 330.27C747.376 328.63 770.584 327.057 778.798 333.62C783.812 337.626 783.95 345.306 784.331 351.161C781.964 350.245 779.358 349.721 776.901 349.067C761.484 346.107 746.155 345.133 730.922 349.724C726.595 351.263 714.4 354.597 711.762 358.013C696.876 366.65 693.655 373.449 682.078 381.938C689.224 367.237 708.325 357.078 722.581 350.774Z"/>
	<path fill="#1D3C53" d="M730.922 349.724C730.222 347.117 729.999 344.067 731.253 341.563C732.863 338.347 737.009 336.899 740.256 336.081C749.895 333.655 764.383 334.022 773.536 337.932C776.309 340.366 776.463 345.545 776.901 349.067C761.484 346.107 746.155 345.133 730.922 349.724Z"/>
	<path fill="#738794" d="M682.078 381.938C693.655 373.449 696.876 366.65 711.762 358.013L711.483 362.083C700.446 368.914 692.008 376.185 684.457 386.802C682.135 388.742 680.145 390.733 677.036 391.156C655.797 390.349 634.517 391.44 613.279 390.675C585.803 391.542 558.281 390.257 530.814 391.414C527.782 389.988 526.719 387.631 524.799 384.925Q554.098 384.557 583.4 384.587C591.166 384.607 599.96 383.856 607.61 384.808C629.998 382.412 653.463 385.273 676.009 384.227C678.951 384.091 680.073 384.123 682.078 381.938Z"/>
	<path fill="#FEFEFE" d="M760.501 555.666C763.291 555.642 766.072 555.824 768.856 555.971C771.723 559.611 769.387 589.68 769.477 596.193C769.54 600.732 769.554 605.314 773.012 608.682C775.746 609.413 776.313 609.329 779.058 608.578C785.919 601.442 781.439 576.49 781.721 566.426C781.836 562.338 782.442 558.451 785.573 555.542C788.23 555.078 788.274 555.351 790.59 556.812C792.652 559.398 792.002 562.84 791.869 565.951C791.853 578.347 795.98 604.502 787.014 613.914C784.029 617.048 780.279 618.133 776.033 618.214C772.13 618.289 768.299 617.102 765.494 614.307C757.131 605.974 760.404 568.533 760.501 555.666Z"/>
	<path fill="#415F76" d="M748.005 649.245Q749.971 649.134 751.939 649.065C753.631 649.01 756.699 648.891 758.198 649.77C760.171 650.929 777.859 681.237 785.687 688.443C802.374 703.805 828.442 698.849 846.733 688.691C853.516 684.923 863.723 675.139 871.598 674.832L872.899 676.278L872.46 680.279C866.281 685.432 859.232 689.943 852.215 693.848C836.176 702.772 816.221 709.909 797.838 704.413C774.334 697.386 758.803 669.578 748.005 649.245Z"/>
	<path fill="#FEFEFE" d="M614.698 556.778C624.453 556.674 633.309 555.813 642.334 560.241C645.751 565.032 648.992 573.579 647.868 579.595C647.042 584.019 643.685 587.26 640.068 589.604C634.308 593.338 625.007 592.966 624.045 597.031C624.604 600.428 625.592 614.081 624.05 616.883C623.434 618.002 621.928 618.648 620.662 618.816C618.39 619.117 617.051 618.434 615.289 617.251C612.814 597.88 614.701 576.424 614.698 556.778Z"/>
	<path fill="#102C42" d="M624.264 565.756C626.311 565.677 628.645 565.477 630.654 565.908C633.029 566.419 635.06 567.495 636.296 569.67C638.457 573.468 636.569 579.193 635.26 582.976C635.112 583.03 634.964 583.087 634.815 583.138C631.587 584.246 628.533 584.694 625.461 583.232C622.781 578.847 624.117 570.853 624.264 565.756Z"/>
	<path fill="#FEFEFE" d="M650.164 559.717L650.915 557.65C655.831 555.479 664.86 556.453 670.369 556.072C676.529 559.568 681.128 563.236 683.011 570.421C684.306 575.366 682.128 581.776 679.504 585.938C678.203 588.001 676.557 589.965 674.981 591.821L675.261 593.536C678.884 600.869 681.811 609.269 684.09 617.135C681.882 618.126 679.164 618.021 676.798 617.942C669.558 614.765 670.82 599.863 665.931 593.976C663.518 592.821 663.208 592.793 660.56 593.195C658.518 596.13 660.196 605.832 660.188 609.837C660.182 612.769 659.728 615.303 657.56 617.439C654.879 618.234 654.858 618.483 652.433 617.174C647.227 607.245 651.511 574.131 650.14 560.741L650.164 559.717Z"/>
	<path fill="#102C42" d="M659.917 565.525C664.495 565.342 667.834 565.221 671.444 568.476C674.139 573.196 672.949 577.439 671.707 582.451Q670.928 582.79 670.135 583.094C667.02 584.321 664.423 584.69 661.354 583.362C658.43 579.31 659.778 570.469 659.917 565.525Z"/>
	<path fill="#FEFEFE" d="M687.676 565.347C688.095 564.3 688.512 563.44 689.216 562.547C691.814 559.257 695.192 556.472 699.513 556.007C706.485 555.256 711.393 558.062 716.569 562.33C721.173 571.784 720.863 596.666 717.4 606.636C715.637 611.708 712.239 616.82 707.158 619.047C704.467 620.227 701.525 620.019 698.891 618.837C693.129 616.25 689.182 612.313 686.176 606.866C688.391 598.807 687.512 578.979 686.326 570.226L687.676 565.347Z"/>
	<path fill="#102C42" d="M699.648 564.489C702.281 564.853 704.168 565.077 706.308 566.841C709.076 569.121 709.389 575.274 709.656 578.659C710.357 587.519 711.254 602.791 705.391 609.658C702.826 609.387 700.849 609.284 698.765 607.566C695.91 605.212 695.635 598.789 695.406 595.286C694.839 586.584 693.769 571.163 699.648 564.489Z"/>
	<path fill="#FEFEFE" d="M724.047 556.087C731.588 555.966 743.098 554.631 749.536 559.178C753.857 562.229 755.382 568.858 755.933 573.781C757.184 584.947 758.267 604.446 751.151 613.507C742.682 618.736 733.459 617.759 723.901 617.679L724.047 556.087Z"/>
	<path fill="#102C42" d="M733.395 565.072C736.035 565.097 740.136 564.968 742.456 566.306C744.601 567.542 745.573 568.936 746.054 571.347C747.581 578.998 747.978 600.903 743.964 607.228C740.732 608.044 737.704 608.857 734.346 608.837C732.426 594.788 733.515 579.303 733.395 565.072Z"/>
	<path fill="#415F76" d="M479.409 580.996C502.195 586.675 535.86 595.535 557.811 582.889C566.796 577.712 576.158 566.943 579.34 556.786C580.753 552.276 581.131 547.433 582.51 542.916C583.296 540.341 583.93 539.368 586.28 538.143C588.893 538.7 589.92 540.123 591.607 542.03C581.145 563.677 582.112 584.409 555.591 593.851C535.037 601.169 504.438 598.515 483.988 592.282L443.809 660.911C436.775 672.87 429.983 687.547 420.648 697.811C417.095 701.717 412.809 704.118 407.741 705.517C387.678 711.058 358.523 704.926 340.787 694.544C332.625 689.767 326.239 683.814 320.475 676.362C323.907 677.073 327.522 680.901 330.564 682.844C349.744 695.093 379.126 703.891 401.802 698.541C405.767 697.606 409.888 696.35 412.776 693.33C421.306 684.408 427.197 670.679 433.426 660.027C448.808 633.724 463.648 607.07 479.409 580.996Z"/>
	<path fill="#FEFEFE" d="M577.394 602.322C578.76 615.723 557.06 637.703 550.11 649.962L725.97 649.203C735.538 666.64 745.728 684.084 758.12 699.684C734.665 700.107 710.908 697.978 687.403 697.588Q606.453 696.199 525.495 696.946C513.8 697.037 448.658 700.233 442.248 698.015Q467.836 654.696 492.233 610.695C519.118 614.862 553.561 618.768 577.394 602.322Z"/>
	<path fill="#1D3C53" d="M423.085 333.535C436.549 328.291 458.288 326.012 471.942 331.779C475.426 333.25 478.481 335.485 479.916 339.115C481.441 342.975 481.783 347.657 482.354 351.762C500.835 358.035 513.465 369.447 524.799 384.925C526.719 387.631 527.782 389.988 530.814 391.414C558.281 390.257 585.803 391.542 613.279 390.675C634.517 391.44 655.797 390.349 677.036 391.156C680.145 390.733 682.135 388.742 684.457 386.802C692.008 376.185 700.446 368.914 711.483 362.083L711.762 358.013C714.4 354.597 726.595 351.263 730.922 349.724C746.155 345.133 761.484 346.107 776.901 349.067C779.358 349.721 781.964 350.245 784.331 351.161C809.798 360.083 827.441 376.589 840.467 400.019C851.963 411.674 867.024 469.956 872.312 487.182C874.942 495.748 881.627 511.53 881.613 519.972C881.612 520.626 881.447 521.01 881.21 521.608C871.926 523.52 859.033 522.356 850.917 524.861C844.051 525.094 837.297 525.065 830.435 524.733C830.166 524.8 829.894 524.859 829.627 524.934C826.233 525.891 824.486 530.147 820.602 530.547C812.137 531.419 719.935 533.288 715.272 530.783C713.677 529.926 713.357 528.873 712.545 527.365C712.26 529.559 712.534 531.543 710.731 532.946C702.443 534.309 620.462 534.546 615.176 531.179C608.904 530.763 602.685 530.905 596.408 531.047C594.83 534.7 593.364 538.464 591.607 542.03C589.92 540.123 588.893 538.7 586.28 538.143C583.93 539.368 583.296 540.341 582.51 542.916C581.131 547.433 580.753 552.276 579.34 556.786C576.158 566.943 566.796 577.712 557.811 582.889C535.86 595.535 502.195 586.675 479.409 580.996C463.648 607.07 448.808 633.724 433.426 660.027C427.197 670.679 421.306 684.408 412.776 693.33C409.888 696.35 405.767 697.606 401.802 698.541C379.126 703.891 349.744 695.093 330.564 682.844C327.522 680.901 323.907 677.073 320.475 676.362C315.9 670.666 312.889 662.839 311.042 655.811C305.803 635.871 309.507 614.288 311.826 594.154C318.177 539.025 328.872 485.96 348.864 434.026C353.387 422.279 358.005 409.692 364.347 398.808C367.616 391.863 371.53 384.911 376.672 379.184C385.908 367.341 398.137 359.116 411.813 353.247C414.749 351.935 417.8 351.311 419.308 348.235C421.439 343.891 421.047 338.234 423.085 333.535Z"/>
	<path fill="#415F76" d="M843.707 409.067C850.579 427.987 848.44 447.798 839.963 465.848Q838.938 468.074 837.782 470.234Q836.626 472.395 835.343 474.482Q834.06 476.569 832.655 478.576Q831.249 480.583 829.726 482.502Q828.202 484.421 826.567 486.246Q824.932 488.071 823.19 489.794Q821.448 491.518 819.607 493.134Q817.765 494.75 815.83 496.253L814.758 493.279C819.178 487.696 824.996 483.485 829.187 477.602C843.723 457.198 845.69 437.106 841.5 412.972L843.707 409.067Z"/>
	<path fill="#E4E3E1" d="M638.598 464.24C643.046 464.025 647.884 463.897 652.125 465.425C655.543 466.655 658.025 468.094 659.598 471.371L658.631 473.449C655.773 475.774 652.329 476.289 648.825 477.089C642.437 477.308 636.552 477.532 630.583 474.872C627.948 473.697 626.619 472.886 625.591 470.183L626.978 468.054C630.635 465.745 634.431 465.077 638.598 464.24Z"/>
	<path fill="#071D2F" d="M562.735 460.222C566.889 460.43 572.028 461.431 575.783 463.263C578.838 464.753 580.458 466.803 581.59 469.971C581.696 472.71 581.246 474.346 579.422 476.445C575.158 481.351 568.064 481.138 562.121 481.442C557.511 481.219 551.993 481.305 547.859 479.071C545.004 477.528 543.427 475.52 542.461 472.399C542.56 470.188 542.946 468.61 544.358 466.885C548.767 461.496 556.296 460.902 562.735 460.222Z"/>
	<path fill="#E4E3E1" d="M552.732 465.333C557.089 464.88 561.687 464.443 566.049 465C570.039 465.51 577.039 466.864 579.509 470.43C579.97 471.095 579.533 472.022 579.395 472.787C577.113 474.777 575.083 475.713 572.296 476.783C567.034 477.406 561.474 477.825 556.231 476.823C551.703 475.959 547.567 475.173 544.85 471.221L545.416 469.444C547.699 467.381 549.913 466.452 552.732 465.333Z"/>
	<path fill="#415F76" d="M677.036 391.156C680.145 390.733 682.135 388.742 684.457 386.802C672.879 406.316 667.214 427.397 673.029 449.893C678.679 471.754 693.628 489.864 713 501.128Q713.946 501.671 714.905 502.19Q715.863 502.71 716.834 503.206Q717.805 503.702 718.788 504.174Q719.771 504.647 720.765 505.095Q721.759 505.543 722.764 505.967Q723.768 506.391 724.783 506.79Q725.798 507.19 726.822 507.564Q727.846 507.939 728.879 508.289Q729.912 508.638 730.953 508.962Q731.994 509.287 733.043 509.586Q734.091 509.885 735.147 510.158Q736.203 510.431 737.265 510.679Q738.327 510.926 739.394 511.148Q740.462 511.37 741.535 511.565Q742.607 511.761 743.685 511.931Q744.762 512.1 745.843 512.243Q746.924 512.387 748.008 512.504Q749.092 512.62 750.179 512.711Q751.266 512.802 752.354 512.866Q753.443 512.93 754.532 512.967Q755.622 513.005 756.713 513.016Q757.803 513.027 758.893 513.011Q759.984 512.996 761.073 512.954Q762.163 512.912 763.251 512.844Q764.339 512.775 765.426 512.68Q766.512 512.585 767.596 512.464Q768.679 512.343 769.76 512.195Q770.84 512.047 771.917 511.873Q772.993 511.699 774.065 511.499Q775.137 511.299 776.204 511.073Q777.271 510.847 778.332 510.596Q779.392 510.344 780.447 510.066C793.061 506.715 804.277 500.991 814.758 493.279L815.83 496.253C807.841 502.557 798.447 507.545 788.868 510.949Q787.787 511.322 786.698 511.669Q785.608 512.015 784.511 512.336Q783.413 512.656 782.308 512.949Q781.203 513.243 780.092 513.51Q778.98 513.776 777.862 514.016Q776.744 514.255 775.621 514.468Q774.497 514.68 773.369 514.866Q772.241 515.051 771.109 515.208Q769.976 515.366 768.84 515.497Q767.704 515.627 766.566 515.73Q765.427 515.832 764.286 515.907Q763.145 515.982 762.003 516.03Q760.861 516.077 759.718 516.097Q758.574 516.117 757.431 516.109Q756.288 516.101 755.145 516.065Q754.002 516.029 752.861 515.966Q751.719 515.902 750.58 515.811Q749.44 515.72 748.303 515.602Q747.166 515.483 746.032 515.337Q744.898 515.19 743.768 515.017Q742.638 514.843 741.512 514.642Q740.387 514.441 739.267 514.213Q738.146 513.985 737.032 513.73Q735.917 513.474 734.81 513.192Q733.702 512.91 732.601 512.601Q731.5 512.292 730.407 511.956Q729.314 511.621 728.23 511.259Q727.145 510.897 726.07 510.509Q724.994 510.121 723.929 509.707Q722.863 509.292 721.808 508.853Q720.752 508.413 719.708 507.948Q718.664 507.482 717.631 506.992C696.208 496.755 679.585 479.544 671.643 457.013C663.622 434.258 666.768 412.569 677.036 391.156Z"/>
	<path fill="#071D2F" d="M615.176 531.179C620.557 531.233 631.854 532.529 636.529 530.536C637.794 529.997 640.53 520.549 641.356 518.579C644.346 511.441 652.223 505.987 659.198 503.143C669.265 499.038 681.38 499.218 691.35 503.533C702.465 508.343 708.248 516.531 712.545 527.365C712.26 529.559 712.534 531.543 710.731 532.946C702.443 534.309 620.462 534.546 615.176 531.179Z"/>
	<path fill="#738794" d="M671.062 507.276Q672.164 507.14 673.272 507.077Q674.38 507.014 675.49 507.025Q676.6 507.037 677.707 507.122Q678.814 507.208 679.912 507.367Q681.011 507.526 682.096 507.758Q683.182 507.989 684.25 508.293Q685.317 508.597 686.362 508.971Q687.407 509.346 688.425 509.789C697.703 513.798 702.428 521.191 705.966 530.153C696.966 529.182 687.936 529.29 678.897 529.273Q660.961 529.51 643.036 530.165C644.559 526.289 646.153 522.54 648.652 519.177C654.349 511.51 661.9 508.656 671.062 507.276Z"/>
	<path fill="#071D2F" d="M521.117 499.27C521.25 499.224 521.38 499.169 521.516 499.132C530.152 496.813 543.122 499.948 550.645 504.419Q551.524 504.95 552.375 505.524Q553.227 506.097 554.048 506.713Q554.87 507.328 555.661 507.983Q556.451 508.638 557.208 509.332Q557.965 510.026 558.687 510.756Q559.408 511.486 560.093 512.251Q560.777 513.017 561.423 513.815Q562.069 514.613 562.674 515.442Q563.28 516.271 563.843 517.129Q564.407 517.987 564.927 518.873Q565.447 519.758 565.923 520.667Q566.399 521.577 566.829 522.509Q567.259 523.442 567.642 524.394Q568.026 525.346 568.361 526.317Q568.697 527.287 568.984 528.273Q569.271 529.258 569.509 530.257C571.855 540.092 570.441 550.727 564.942 559.288C557.895 570.26 547.314 575.014 535.093 577.798C534.887 577.83 534.682 577.866 534.476 577.895C522.843 579.568 510.423 577.382 500.925 570.23Q500.104 569.612 499.314 568.953Q498.525 568.295 497.769 567.598Q497.013 566.901 496.293 566.168Q495.573 565.434 494.89 564.666Q494.207 563.898 493.563 563.096Q492.919 562.295 492.316 561.462Q491.713 560.63 491.152 559.768Q490.591 558.907 490.074 558.019Q489.556 557.13 489.084 556.217Q488.611 555.305 488.185 554.369Q487.758 553.434 487.378 552.479Q486.999 551.523 486.667 550.55Q486.335 549.577 486.053 548.589Q485.77 547.601 485.536 546.6Q485.303 545.598 485.12 544.587Q484.937 543.575 484.804 542.556Q484.682 541.63 484.607 540.698Q484.532 539.767 484.504 538.833Q484.477 537.898 484.497 536.964Q484.517 536.03 484.584 535.098Q484.652 534.166 484.766 533.238Q484.881 532.311 485.043 531.391Q485.204 530.47 485.412 529.559Q485.621 528.648 485.875 527.749Q486.129 526.849 486.428 525.964Q486.728 525.079 487.072 524.21Q487.416 523.341 487.804 522.491Q488.192 521.641 488.622 520.812Q489.053 519.982 489.525 519.176Q489.997 518.369 490.509 517.588Q491.022 516.806 491.573 516.052Q492.125 515.297 492.714 514.572Q493.369 513.771 494.062 513.003Q494.756 512.236 495.486 511.503Q496.216 510.77 496.981 510.073Q497.746 509.377 498.544 508.718Q499.342 508.06 500.172 507.442Q501.001 506.823 501.859 506.246Q502.718 505.669 503.604 505.134Q504.49 504.599 505.4 504.109Q506.311 503.618 507.245 503.172Q508.179 502.727 509.133 502.327Q510.087 501.928 511.06 501.575Q512.033 501.223 513.021 500.919Q514.01 500.614 515.013 500.359Q516.015 500.103 517.029 499.896Q518.043 499.69 519.065 499.533Q520.088 499.377 521.117 499.27Z"/>
	<path fill="#738794" d="M519.936 506.032C528.959 505.307 536.869 505.524 545.082 509.754C552.918 513.789 559.282 520.86 561.896 529.338Q562.128 530.083 562.322 530.839Q562.517 531.595 562.674 532.36Q562.831 533.125 562.949 533.896Q563.068 534.667 563.148 535.444Q563.229 536.22 563.27 537Q563.312 537.779 563.315 538.56Q563.318 539.34 563.282 540.12Q563.246 540.9 563.172 541.677Q563.097 542.454 562.984 543.226Q562.872 543.998 562.721 544.764Q562.57 545.53 562.381 546.287Q562.192 547.045 561.966 547.792Q561.739 548.539 561.476 549.274Q561.213 550.009 560.914 550.73Q560.615 551.451 560.281 552.156Q559.946 552.861 559.577 553.549C554.275 563.284 545.418 567.738 535.287 570.848C525.785 571.538 517.553 571.422 508.977 566.535C501.222 562.116 495.192 554.767 492.86 546.103Q492.661 545.362 492.498 544.612Q492.336 543.862 492.211 543.105Q492.086 542.348 491.998 541.585Q491.911 540.823 491.861 540.057Q491.811 539.291 491.8 538.524Q491.788 537.757 491.814 536.99Q491.841 536.223 491.905 535.458Q491.969 534.693 492.071 533.933Q492.173 533.172 492.313 532.418Q492.452 531.663 492.629 530.916Q492.806 530.17 493.019 529.433Q493.232 528.695 493.482 527.97Q493.732 527.244 494.017 526.532Q494.302 525.819 494.623 525.122Q494.943 524.425 495.297 523.744Q495.651 523.063 496.039 522.401C501.292 513.525 510.188 508.504 519.936 506.032Z"/>
	<path fill="#1D3C53" d="M730.922 349.724C746.155 345.133 761.484 346.107 776.901 349.067C779.358 349.721 781.964 350.245 784.331 351.161C809.798 360.083 827.441 376.589 840.467 400.019C841.444 402.981 842.268 406.306 843.707 409.067L841.5 412.972C845.69 437.106 843.723 457.198 829.187 477.602C824.996 483.485 819.178 487.696 814.758 493.279C804.277 500.991 793.061 506.715 780.447 510.066Q779.392 510.344 778.331 510.596Q777.271 510.847 776.204 511.073Q775.137 511.299 774.065 511.499Q772.993 511.699 771.917 511.873Q770.84 512.047 769.76 512.195Q768.679 512.343 767.596 512.464Q766.512 512.585 765.426 512.68Q764.339 512.775 763.251 512.844Q762.163 512.912 761.073 512.954Q759.984 512.996 758.893 513.011Q757.803 513.027 756.713 513.016Q755.622 513.005 754.532 512.967Q753.443 512.93 752.354 512.866Q751.265 512.802 750.179 512.711Q749.092 512.62 748.008 512.504Q746.924 512.387 745.843 512.243Q744.762 512.1 743.685 511.931Q742.607 511.761 741.535 511.565Q740.462 511.37 739.394 511.148Q738.327 510.926 737.265 510.679Q736.203 510.431 735.147 510.158Q734.091 509.885 733.043 509.586Q731.994 509.287 730.953 508.962Q729.912 508.638 728.879 508.289Q727.846 507.939 726.822 507.564Q725.798 507.19 724.783 506.79Q723.768 506.391 722.764 505.967Q721.759 505.543 720.765 505.095Q719.771 504.647 718.788 504.174Q717.805 503.702 716.834 503.206Q715.863 502.71 714.904 502.19Q713.946 501.671 713 501.128C693.628 489.864 678.679 471.754 673.029 449.893C667.214 427.397 672.879 406.316 684.457 386.802C692.008 376.185 700.446 368.914 711.483 362.083L711.762 358.013C714.4 354.597 726.595 351.263 730.922 349.724Z"/>
	<path fill="#738794" d="M730.922 349.724C746.155 345.133 761.484 346.107 776.901 349.067C779.358 349.721 781.964 350.245 784.331 351.161C809.798 360.083 827.441 376.589 840.467 400.019C841.444 402.981 842.268 406.306 843.707 409.067L841.5 412.972C840.332 409.607 839.222 406.183 837.705 402.954C827.576 381.392 808.533 365.247 786.229 357.286C760.612 348.142 735.747 350.606 711.483 362.083L711.762 358.013C714.4 354.597 726.595 351.263 730.922 349.724Z"/>
	<path fill="#FEFEFE" d="M752.166 457.284C758.082 456.737 764.311 456.507 769.734 459.296C774.465 461.729 778.263 465.738 779.782 470.899C780.954 474.879 780.688 478.894 778.621 482.53C775.445 488.118 770.172 490.047 764.296 491.733C759.271 492.108 753.989 492.588 749.18 490.791C744.379 488.998 740.006 485.346 737.997 480.566C736.384 476.73 736.179 472.389 737.882 468.543C740.723 462.129 745.946 459.676 752.166 457.284Z"/>
	<path fill="#FEFEFE" d="M802.106 414.399C807.779 414.575 813.75 414.935 818.502 418.357C822.491 421.229 825.454 425.496 826.085 430.435C826.652 434.873 825.517 438.946 822.659 442.395C818.372 447.569 812.739 448.599 806.382 449.232C800.988 449.271 795.402 448.957 790.699 446.041C786.754 443.595 783.556 439.709 782.63 435.09Q782.469 434.309 782.389 433.515Q782.31 432.721 782.313 431.923Q782.316 431.125 782.402 430.332Q782.488 429.539 782.656 428.759Q782.824 427.979 783.072 427.221Q783.32 426.463 783.645 425.734Q783.97 425.005 784.369 424.315Q784.768 423.624 785.237 422.978C789.425 417.171 795.391 415.534 802.106 414.399Z"/>
	<path fill="#FEFEFE" d="M707.613 414.233C712.701 414.093 717.616 414.075 722.423 416.017C727.182 417.941 731.507 421.797 733.406 426.621C735 430.672 735.008 434.88 733.139 438.842C730.296 444.871 725.236 447.068 719.266 449.178C713.23 449.684 706.519 449.992 700.987 447.176C696.382 444.833 692.695 441.177 691.12 436.172C689.893 432.272 690.124 428.151 692.102 424.541C695.415 418.498 701.34 416.104 707.613 414.233Z"/>
	<path fill="#FEFEFE" d="M752.687 371.187C757.955 370.812 763.444 370.996 768.28 373.329C773.26 375.731 777.474 380.206 779.128 385.521C780.318 389.343 780.181 393.473 778.287 397.044C775.396 402.494 770.428 405.045 764.751 406.741C758.743 407.415 752.089 407.729 746.544 404.915C741.946 402.582 738.385 398.884 736.879 393.888C735.582 389.585 735.899 384.86 738.161 380.933C741.526 375.09 746.453 372.946 752.687 371.187Z"/>
	<path fill="#102C42" d="M423.085 333.535C436.549 328.291 458.288 326.012 471.942 331.779C475.426 333.25 478.481 335.485 479.916 339.115C481.441 342.975 481.783 347.657 482.354 351.762C500.835 358.035 513.465 369.447 524.799 384.925C526.719 387.631 527.782 389.988 530.814 391.414L528.825 392.616C531.149 400.151 534.402 407.511 536.103 415.222C539.636 431.236 535.057 451.647 527.557 465.926Q527.077 466.825 526.576 467.712Q526.074 468.598 525.551 469.473Q525.028 470.347 524.484 471.208Q523.94 472.07 523.375 472.917Q522.81 473.765 522.224 474.599Q521.639 475.432 521.033 476.251Q520.427 477.07 519.801 477.874Q519.176 478.678 518.53 479.467Q517.885 480.255 517.221 481.028Q516.557 481.8 515.874 482.556Q515.191 483.312 514.49 484.051Q513.789 484.791 513.07 485.512Q512.35 486.234 511.614 486.938Q510.878 487.642 510.124 488.328Q509.371 489.013 508.601 489.68Q507.831 490.348 507.045 490.996Q506.259 491.644 505.457 492.272Q504.655 492.901 503.838 493.51Q503.022 494.119 502.19 494.708Q501.359 495.296 500.513 495.865Q499.668 496.433 498.808 496.98Q497.949 497.528 497.077 498.054Q496.204 498.58 495.319 499.085Q494.434 499.59 493.537 500.073Q492.64 500.556 491.732 501.017Q490.823 501.477 489.904 501.916Q488.984 502.355 488.054 502.771Q487.124 503.187 486.184 503.58Q485.244 503.973 484.295 504.343Q483.346 504.713 482.388 505.059Q481.43 505.406 480.464 505.729Q479.498 506.052 478.524 506.352C454.596 513.765 427.644 510.652 405.595 498.917C386.248 488.619 369.968 470.239 363.608 449.089C358.569 432.335 360.098 415.525 364.347 398.808C367.616 391.863 371.53 384.911 376.672 379.184C385.908 367.341 398.137 359.116 411.813 353.247C414.749 351.935 417.8 351.311 419.308 348.235C421.439 343.891 421.047 338.234 423.085 333.535Z"/>
	<path fill="#738794" d="M376.672 379.184C385.908 367.341 398.137 359.116 411.813 353.247C415.024 353.623 418.529 353.783 421.637 354.653C402.2 362.335 388.311 371.659 376.143 388.904C374.743 386.209 376.177 382.242 376.672 379.184Z"/>
	<path fill="#071D2F" d="M441.72 477.89C438.668 479.322 434.743 480.103 431.457 479.121C420.197 475.759 433.024 454.402 429.22 447.634Q426.706 448.085 424.197 448.564C425.231 449.237 425.369 449.081 425.786 450.317C417.172 453.172 408.508 455.259 399.43 455.909C396.173 456.141 393.194 456.288 390.652 454.1C393.83 454.066 400.077 455.012 402.716 453.617C402.998 453.468 403.267 453.298 403.543 453.138L403.167 453.902L403.042 452.758L400.339 451.084C396.068 443.454 397.645 418.257 397.761 408.872C399.416 413.595 398.561 419.525 399.778 424.593C399.784 432.583 399.152 440.629 401.949 448.238C403.873 450.081 404.605 450.882 407.459 450.744C415.265 450.368 425.268 446.161 432.9 443.946C431.48 452.99 426.562 466.406 430.228 474.969C433.865 478.294 436.995 477.89 441.72 477.89Z"/>
	<path fill="#415F76" d="M423.085 333.535C436.549 328.291 458.288 326.012 471.942 331.779C475.426 333.25 478.481 335.485 479.916 339.115C481.441 342.975 481.783 347.657 482.354 351.762C500.835 358.035 513.465 369.447 524.799 384.925C526.719 387.631 527.782 389.988 530.814 391.414L528.825 392.616C531.149 400.151 534.402 407.511 536.103 415.222C539.636 431.236 535.057 451.647 527.557 465.926Q527.077 466.825 526.576 467.712Q526.074 468.598 525.551 469.473Q525.028 470.347 524.484 471.208Q523.94 472.07 523.375 472.917Q522.81 473.765 522.224 474.599Q521.639 475.432 521.033 476.251Q520.427 477.07 519.801 477.874Q519.176 478.678 518.53 479.467Q517.885 480.255 517.221 481.028Q516.557 481.8 515.874 482.556Q515.191 483.312 514.49 484.051Q513.789 484.791 513.07 485.512Q512.35 486.234 511.614 486.938Q510.878 487.642 510.124 488.328Q509.371 489.013 508.601 489.68Q507.831 490.348 507.045 490.996Q506.259 491.644 505.457 492.272Q504.655 492.901 503.838 493.51Q503.022 494.119 502.19 494.708Q501.359 495.296 500.513 495.865Q499.668 496.433 498.808 496.98Q497.949 497.528 497.077 498.054Q496.204 498.58 495.319 499.085Q494.434 499.59 493.537 500.073Q492.64 500.556 491.732 501.017Q490.823 501.477 489.904 501.916Q488.984 502.355 488.054 502.771Q487.124 503.187 486.184 503.58Q485.244 503.973 484.295 504.343Q483.346 504.713 482.388 505.059Q481.43 505.406 480.464 505.729Q479.498 506.052 478.524 506.352C454.596 513.765 427.644 510.652 405.595 498.917C386.248 488.619 369.968 470.239 363.608 449.089C358.569 432.335 360.098 415.525 364.347 398.808C367.616 391.863 371.53 384.911 376.672 379.184C376.177 382.242 374.743 386.209 376.143 388.904C366.211 408.294 362.016 429.702 368.958 450.949C370.642 456.103 373.268 462.949 376.828 466.997C376.887 467.116 376.943 467.237 377.005 467.354C386.137 484.443 404.651 496.764 422.708 502.547C445.428 509.822 469.952 508.811 491.308 497.804C506.523 489.963 521.428 475.403 526.783 458.783C534.115 445.97 534.745 427.695 531.604 413.598C527.08 393.291 513.525 375.506 496.042 364.492C472.693 349.782 447.904 348.629 421.637 354.653C418.529 353.783 415.024 353.623 411.813 353.247C414.749 351.935 417.8 351.311 419.308 348.235C421.439 343.891 421.047 338.234 423.085 333.535Z"/>
	<path fill="#1D3C53" d="M436.305 335.187C443.593 334.551 451.621 334.197 458.884 335.046C465.345 335.801 471.545 337.684 475.7 342.921C476.23 345.464 476.347 345.414 474.938 347.573C471.209 348.919 469.354 347.954 465.548 347.065C451.693 345.432 439.124 345.401 425.488 348.497C426.004 345.115 426.365 341.718 427.737 338.555C429.82 335.874 433.169 335.744 436.305 335.187Z"/>
	<path fill="#7EBF98" d="M427.696 381.163Q449.112 380.691 470.528 381.181C470.341 390.895 468.629 399.975 467.484 409.563C476.306 408.557 488.891 405.472 497.389 407.19C502.131 412.796 500.442 432.74 499.829 439.922C499.552 443.172 499.317 447.261 497.287 449.901C488.686 451.068 474.841 446.619 466.556 444.127C468.774 455.093 470.831 465.979 471.797 477.145C464.229 477.31 448.52 476.095 441.72 477.89C436.995 477.89 433.865 478.294 430.228 474.969C426.562 466.406 431.48 452.99 432.9 443.946C425.268 446.161 415.265 450.368 407.459 450.744C404.605 450.882 403.873 450.081 401.949 448.238C399.152 440.629 399.784 432.583 399.778 424.593C399.997 419.167 398.953 414.017 400.365 408.657C402.189 406.712 402.491 406.858 405.18 406.517C412.341 401.983 420.921 406.343 428.204 401.875C428.936 399.854 429.234 397.84 429.571 395.729Q428.759 388.43 427.696 381.163Z"/>
	<path fill="#071D2F" d="M429.571 395.729Q430.822 403.125 432.213 410.496C423.282 408.947 414.202 407.435 405.18 406.517C412.341 401.983 420.921 406.343 428.204 401.875C428.936 399.854 429.234 397.84 429.571 395.729Z"/>
	<defs>
		<linearGradient id="gradient_0" gradientUnits="userSpaceOnUse" x1="1767.7941" y1="466.90793" x2="870.21454" y2="679.47394">
			<stop offset="0" stop-color="#ECAB37"/>
			<stop offset="1" stop-color="#B64144"/>
		</linearGradient>
	</defs>
	<path fill="url(#gradient_0)" d="M1417.6 389.088C1417.81 389.016 1418.02 388.951 1418.22 388.871C1422.2 387.328 1449.99 361.972 1456.99 357.013C1514.98 315.947 1588.64 305.851 1654.64 332.953Q1656.88 333.867 1659.1 334.837Q1661.32 335.807 1663.52 336.831Q1665.71 337.855 1667.88 338.934Q1670.05 340.012 1672.19 341.144Q1674.33 342.275 1676.44 343.46Q1678.56 344.644 1680.64 345.88Q1682.72 347.117 1684.77 348.404Q1686.82 349.692 1688.84 351.03Q1690.86 352.367 1692.85 353.755Q1694.83 355.142 1696.78 356.578Q1698.73 358.014 1700.65 359.498Q1702.56 360.982 1704.44 362.513Q1706.31 364.044 1708.15 365.621Q1709.99 367.198 1711.79 368.82Q1713.59 370.442 1715.35 372.108Q1717.1 373.774 1718.82 375.483Q1720.54 377.192 1722.21 378.942Q1723.88 380.693 1725.51 382.485Q1727.14 384.277 1728.73 386.109Q1730.31 387.94 1731.85 389.81Q1733.39 391.681 1734.88 393.588Q1736.37 395.496 1737.82 397.44Q1739.26 399.384 1740.66 401.364Q1742.05 403.343 1743.4 405.356Q1744.75 407.369 1746.04 409.415Q1747.34 411.461 1748.58 413.539Q1749.83 415.616 1751.02 417.724Q1752.21 419.831 1753.35 421.968Q1754.5 424.104 1755.58 426.268Q1756.67 428.432 1757.7 430.622Q1758.74 432.813 1759.72 435.028Q1760.7 437.243 1761.62 439.482Q1762.51 441.612 1763.34 443.763Q1764.18 445.914 1764.96 448.085Q1765.74 450.255 1766.47 452.445Q1767.2 454.634 1767.87 456.84Q1768.55 459.046 1769.17 461.268Q1769.79 463.49 1770.36 465.726Q1770.93 467.963 1771.44 470.212Q1771.96 472.462 1772.41 474.723Q1772.87 476.984 1773.28 479.256Q1773.68 481.528 1774.03 483.809Q1774.37 486.09 1774.67 488.379Q1774.96 490.667 1775.19 492.963Q1775.43 495.258 1775.61 497.558Q1775.79 499.858 1775.92 502.162Q1776.04 504.466 1776.11 506.772Q1776.18 509.079 1776.19 511.386Q1776.2 513.693 1776.16 516Q1776.11 518.307 1776.02 520.612Q1775.92 522.917 1775.76 525.219Q1775.6 527.522 1775.39 529.819Q1775.18 532.117 1774.91 534.408Q1774.64 536.7 1774.32 538.985Q1774 541.269 1773.62 543.545Q1773.24 545.821 1772.81 548.087Q1772.37 550.354 1771.88 552.609Q1771.39 554.863 1770.85 557.106Q1770.31 559.348 1769.71 561.577Q1769.11 563.805 1768.46 566.018Q1767.81 568.232 1767.1 570.428Q1766.4 572.625 1765.64 574.804Q1764.88 576.983 1764.07 579.143Q1763.25 581.303 1762.39 583.442Q1761.46 585.722 1760.47 587.978Q1759.49 590.234 1758.45 592.465Q1757.4 594.696 1756.31 596.901Q1755.21 599.105 1754.06 601.281Q1752.91 603.457 1751.7 605.604Q1750.49 607.751 1749.24 609.867Q1747.98 611.983 1746.67 614.067Q1745.35 616.151 1743.99 618.202Q1742.63 620.252 1741.22 622.268Q1739.8 624.284 1738.34 626.265Q1736.87 628.245 1735.36 630.188Q1733.85 632.131 1732.29 634.036Q1730.73 635.941 1729.12 637.806Q1727.52 639.671 1725.86 641.496Q1724.21 643.32 1722.51 645.103Q1720.81 646.886 1719.07 648.626Q1717.33 650.366 1715.54 652.062Q1713.76 653.758 1711.93 655.409Q1710.1 657.06 1708.24 658.665Q1706.37 660.269 1704.46 661.827Q1702.56 663.385 1700.61 664.895Q1698.67 666.405 1696.68 667.865Q1694.7 669.326 1692.68 670.737Q1690.67 672.148 1688.61 673.508Q1686.56 674.869 1684.48 676.177Q1682.39 677.486 1680.27 678.742Q1678.15 679.998 1676.01 681.201Q1673.86 682.404 1671.68 683.553Q1669.5 684.702 1667.3 685.797Q1665.09 686.891 1662.86 687.93Q1660.63 688.969 1658.37 689.952Q1656.11 690.935 1653.83 691.862C1598.58 714.564 1539.68 711.674 1485.05 688.647C1472.13 683.201 1459.44 676.484 1447.89 668.517C1440.03 663.091 1430.98 653.965 1422.23 650.564L1085.71 650.199L968.542 650.038C949.076 650.006 929.043 650.904 909.625 649.791C902.683 646.876 876.882 648.693 868.331 648.721C864.48 639.689 861.78 629.217 859.246 619.716C861.362 616.33 855.513 599.063 854.503 594.462L855.064 594.194C855.95 595.943 856.805 597.527 857.997 599.086L858.64 596.753L860.278 596.004C858.184 588.383 856.781 580.441 853.748 573.119C851.958 568.798 850.298 568.496 846.198 566.851L847.218 562.927L845.226 563.788L843.984 557.871C840.606 554.721 836.34 555.696 831.887 555.752C834.647 555.625 837.367 555.41 840.113 555.103C839.371 546.071 833.493 533.59 830.435 524.733C837.297 525.065 844.051 525.094 850.917 524.861C868.126 525.22 885.825 526.23 902.992 525.052L909.924 524.634C908.492 525.288 906.29 525.969 905.465 527.325L905.818 528.176C913.695 530.042 922.768 529.789 930.853 530.197C947.519 531.038 964.371 532.17 981.059 532.226C988.142 532.25 995.2 531.288 1002.3 531.332L1219.3 531.49C1228.39 537.548 1237.4 546.23 1248.06 549.323C1255.06 551.356 1271.85 550.966 1276.99 554.862C1285.87 555.37 1294.77 556.046 1303.66 556.15Q1306.84 556.192 1310.01 555.867C1346 552.46 1379.59 536.309 1402.66 508.129C1409.81 499.393 1424.9 475.156 1423.8 463.779C1426.15 460.381 1426.75 455.141 1427.32 451.061C1429.72 433.781 1428.56 403.571 1417.6 389.088Z"/>
	<path fill="#FEFEFE" d="M1243.88 606.495C1246.51 606.078 1249.03 605.708 1251.29 607.538C1253.5 609.324 1253.68 610.32 1253.89 612.94C1252.38 615.485 1251.84 615.808 1249.22 617.253L1248.35 617.63C1245.44 617.121 1245.36 617.068 1243.43 614.826C1242.68 611.229 1242.73 609.985 1243.88 606.495Z"/>
	<path fill="#D2773E" d="M1276.99 554.862C1285.87 555.37 1294.77 556.046 1303.66 556.15C1302.71 556.708 1302.2 557.074 1301.12 557.276L1301.94 558.545L1320.74 558.188L1320.79 560.438C1322.57 561.492 1324.43 560.948 1326.38 560.67L1327.69 561.745C1315.24 562.83 1315.11 569.573 1305.96 573.912C1304.08 573.275 1302.29 571.185 1300.8 569.853L1300.81 567.859C1298.98 565.131 1295.77 564.22 1292.85 563.013C1292.99 562.67 1293.16 562.297 1293.15 561.916C1293.03 557.903 1280.11 557.789 1276.99 554.862Z"/>
	<path fill="#CA6039" d="M1546.62 483.886C1548.37 479.056 1551.34 474.315 1553.41 469.549Q1557.08 461.036 1559.75 452.159Q1562.43 443.283 1564.07 434.159C1565.38 427.215 1568.21 387.439 1569.66 384.738L1570.81 385.798C1572.7 391.276 1572.16 396.616 1570.85 402.171C1575.71 412.555 1566.52 445.19 1562.68 455.849C1559.83 463.768 1554.05 479.432 1546.62 483.886Z"/>
	<path fill="#FEFEFE" d="M1120.05 575.023C1120.11 574.853 1120.19 574.684 1120.25 574.511C1122.86 567.082 1117.45 557.48 1124.81 552.815C1126.84 553.184 1127.27 553.143 1128.59 554.892C1132.88 560.6 1131.59 607.463 1130.32 616.365C1127.11 617.488 1123.8 617.215 1120.45 617.144C1122.56 608.167 1122.04 584.049 1120.05 575.023Z"/>
	<path fill="#E49038" d="M1423.8 463.779L1426.26 465.258C1428.27 478.081 1409.08 497.289 1406.39 507.725L1407.55 507.982C1408.85 506.362 1410.8 502.918 1412.77 502.548C1411.65 511.465 1382.24 533.418 1374.36 539.496C1360.15 550.47 1338.34 556.193 1320.74 558.188L1301.94 558.545L1301.12 557.276C1302.2 557.074 1302.71 556.708 1303.66 556.15Q1306.84 556.192 1310.01 555.867C1346 552.46 1379.59 536.309 1402.66 508.129C1409.81 499.393 1424.9 475.156 1423.8 463.779Z"/>
	<path fill="#B0322E" d="M1204.8 603.123C1211.92 593.07 1203.21 566.579 1207.25 554.87L1208.48 554.828C1211.46 559.593 1210.15 608.333 1209.72 616.961C1217.72 617.532 1227.7 618.614 1235.5 616.951C1238.32 614.307 1237.02 613.585 1238.69 610.572L1237.92 610.575L1239.78 612.127C1239.43 614.838 1239.4 617.852 1237.8 620.143C1230.93 624.322 1215.97 622.21 1207.94 622.019C1208.23 621.43 1208.46 620.936 1208.6 620.292C1209.77 615.042 1208.85 610.782 1206.05 606.278C1206.12 606.99 1206.18 607.697 1206.16 608.414C1206.08 611.401 1203.96 617.367 1201.55 619.283C1190.33 628.215 1176.36 614.769 1170.31 614.076C1170.11 614.053 1169.9 614.047 1169.7 614.032C1168.76 613.562 1167.9 612.76 1167.06 612.119Q1167.32 611.106 1167.51 610.079C1169.41 599.994 1171.59 569.214 1166.13 561.102C1168.26 561.362 1170.07 561.239 1172.19 560.918L1172.24 561.072C1172.31 561.289 1172.38 561.504 1172.45 561.721C1176.79 576.399 1165.62 606.918 1180.86 615.589C1185.02 617.958 1190.4 618.433 1194.99 617.138C1198.92 616.024 1202.08 613.879 1204 610.206C1204.91 608.456 1205.66 605.948 1205.11 604.014C1205.02 603.713 1204.9 603.42 1204.8 603.123Z"/>
	<path fill="#FEFEFE" d="M1015.42 617.023Q1015.19 586.374 1015.56 555.727C1017.09 553.727 1018.15 553.052 1020.56 552.343C1021.35 552.633 1021.94 552.885 1022.55 553.498C1027.04 558.015 1025.69 591.261 1025.84 599.362C1025.99 602.729 1025.48 604.47 1027.72 607.069C1032.64 609.097 1039.2 606.125 1042.91 609.733C1043.22 612.189 1042.58 613.773 1041.65 615.99C1038.91 618.571 1020.04 617.058 1015.42 617.023Z"/>
	<path fill="#B0322E" d="M1113.68 563.908C1113.84 563.747 1114 563.589 1114.16 563.425C1115.59 561.93 1118.64 555.731 1119.61 555.658C1120.23 561.241 1121.29 569.649 1120.05 575.023C1122.04 584.049 1122.56 608.167 1120.45 617.144C1122.84 617.69 1125.28 617.555 1127.7 617.803C1129.75 618.013 1130.85 617.803 1132.22 619.468L1130.49 621.351C1127.24 621.687 1124.38 621.471 1121.15 621.07C1117.51 618.47 1119.49 614.105 1116.77 610.525C1115.71 612.847 1114.42 615.035 1112.73 616.953C1109.03 621.131 1100.19 622.467 1094.87 622.809C1090.91 623.065 1085.62 622.707 1082.64 619.707C1079.31 616.353 1080.22 610.168 1080.32 605.798L1079.74 606.023C1078.48 611.253 1075.99 616.123 1071.98 619.796C1069.25 622.297 1066.27 623.158 1062.6 622.98C1055.71 622.645 1050.36 618.594 1045.92 613.658C1045.31 613.483 1043.02 615.425 1041.65 615.99C1042.58 613.773 1043.22 612.189 1042.91 609.733C1039.2 606.125 1032.64 609.097 1027.72 607.069C1025.48 604.47 1025.99 602.729 1025.84 599.362C1028.26 601.88 1027.2 605.599 1031.28 605.692C1034.51 605.766 1037.78 605.61 1041.01 605.51C1041.1 605.341 1041.2 605.177 1041.29 605.004C1045.9 595.877 1039.58 567.8 1043.58 556.606C1044.36 566.115 1046.2 594.977 1043.65 602.9C1046.46 607.463 1047.68 612.734 1052.42 615.917C1055.93 618.279 1062.09 618.789 1066.1 617.809C1069.82 616.899 1072.62 614.267 1074.51 611.025C1079.84 601.874 1079.8 566.977 1076.95 556.787L1080.56 556.74C1081.01 557.248 1082.13 558.212 1082.38 558.783C1083.48 561.393 1081.66 589.132 1081.37 593.763C1081.22 596.195 1080.91 598.597 1080.67 601.019C1080.59 601.881 1080.61 601.589 1080.8 602.594L1081.57 600.938C1082.08 602.372 1082.17 602.392 1081.67 603.811C1083.48 608.796 1083.57 612.645 1081.52 617.565C1090.1 617.855 1102.86 619.597 1110.01 613.938C1113.75 610.974 1115.26 606.151 1115.81 601.576C1116.73 593.988 1118.05 569.547 1113.68 563.908Z"/>
	<path fill="#FEFEFE" d="M1209.15 554.068C1214.98 554.067 1233.28 552.281 1237.33 555.187C1238.45 557.413 1237.99 558.993 1237.45 561.3C1235.77 563.198 1235.01 564.23 1232.31 564.392C1227.99 564.651 1223.55 563.823 1219.19 563.971C1221.49 569.583 1221.52 576.179 1219.51 581.921C1224.02 581.786 1229.44 580.875 1232.92 584.302C1234.05 585.42 1233.8 585.887 1233.83 587.399C1231.68 589.864 1230.11 591.148 1226.72 591.386C1224.45 591.545 1222.16 591.55 1219.88 591.561C1220.93 597.132 1222.08 602.834 1219.14 608.004C1224.19 607.81 1232.21 606.422 1236.52 609.251C1237.38 611.677 1237.12 613.835 1235.91 616.196C1235.78 616.451 1235.64 616.699 1235.5 616.951C1227.7 618.614 1217.72 617.532 1209.72 616.961C1211.98 611.578 1212.05 560.603 1210.07 555.792C1209.82 555.183 1209.5 554.624 1209.15 554.068Z"/>
	<path fill="#FEFEFE" d="M1172.24 561.072L1172.47 560.513C1173.19 558.714 1173.65 557.063 1173.96 555.153C1175.84 553.794 1177.31 553.728 1179.59 553.652C1182.26 555.859 1182.64 558.203 1182.95 561.644C1184.04 573.577 1179.14 599.564 1186.67 608.725C1187.91 609.406 1188.09 609.475 1189.49 609.404C1192.12 607.919 1193.63 606.657 1195.43 604.213C1198.17 594.026 1192.8 559.629 1197.79 553.812C1200.78 553.701 1201.3 553.729 1203.89 555.19C1207.43 560.354 1207.06 592.371 1205.86 599.39C1205.65 600.655 1205.28 601.934 1204.8 603.123C1204.9 603.42 1205.02 603.713 1205.11 604.014C1205.66 605.948 1204.91 608.456 1204 610.206C1202.08 613.879 1198.92 616.024 1194.99 617.138C1190.4 618.433 1185.02 617.958 1180.86 615.589C1165.62 606.918 1176.79 576.399 1172.45 561.721C1172.38 561.504 1172.31 561.289 1172.24 561.072Z"/>
	<path fill="#FEFEFE" d="M1043.65 602.9C1048.77 592.415 1041.67 564.742 1045.53 554.815C1048.17 554.042 1050.52 554.483 1053.18 554.855C1057.63 559.042 1054.21 593.161 1054.89 601.147C1055.17 604.42 1056.31 605.592 1058.74 607.573C1061.45 608.074 1062.31 608.315 1064.97 607.298C1072.22 599.537 1066.18 570.45 1068.09 559.069C1068.54 556.4 1069.02 555.436 1071.21 553.931C1073.24 553.934 1075.09 553.855 1077.03 554.601L1076.95 556.787C1079.8 566.977 1079.84 601.874 1074.51 611.025C1072.62 614.267 1069.82 616.899 1066.1 617.809C1062.09 618.789 1055.93 618.279 1052.42 615.917C1047.68 612.734 1046.46 607.463 1043.65 602.9Z"/>
	<path fill="#CA6039" d="M1458.88 613.702L1453.47 611.788C1450.03 606.621 1456.97 524.061 1458.79 514.204L1459.61 514.464L1458.82 518.002C1464.3 531.23 1450.46 601.049 1456.51 607.452C1457.75 607.832 1459.63 608.167 1460.58 609.004C1473.6 610.394 1486.54 611.784 1499.63 612.387C1509.96 612.862 1521.04 612.106 1531.21 614.003C1535.49 614.802 1543.41 617.159 1546.68 620.166C1555.26 622.595 1563.86 625.198 1572.6 626.977C1587.06 629.919 1653.41 640.755 1664.1 635.008C1665.17 634.431 1666.17 633.806 1666.94 632.847C1667.89 634.084 1667.87 634.107 1667.85 635.67C1666.35 636.908 1664.82 638.087 1663.06 638.931C1648.3 645.994 1582.98 635.166 1565.02 631.066C1556.34 629.083 1547.94 626.101 1539.54 623.162C1536.09 621.353 1532.51 619.826 1528.67 619.076C1520.44 617.471 1511.41 617.783 1503.04 617.463C1488.13 616.892 1473.63 616.147 1458.88 613.702Z"/>
	<path fill="#FEFEFE" d="M978.035 565.281C980.779 560.069 984.845 554.694 990.777 552.894C993.988 551.92 997.105 552.699 999.941 554.314C1005.11 557.257 1008.56 562.689 1010.01 568.356C1012.74 578.968 1013.23 601.352 1007.43 610.723C1005.48 613.882 1002.48 616.87 998.768 617.798C996.333 618.407 993.555 618.397 991.049 618.49C988.116 617.544 985.186 616.29 982.881 614.186C974.522 606.556 977.526 589.091 977.192 578.699C978.204 574.917 977.756 569.307 978.035 565.281Z"/>
	<path fill="#BB463E" d="M990.626 563.471C994.034 563.729 995.251 563.629 998.156 565.557C1000.01 568.248 1000.59 570.903 1001.02 574.11C1002.28 583.657 1002.94 600.259 996.963 607.971C993.936 607.686 992.708 607.659 990.121 605.905C988.671 603.643 988.001 601.554 987.563 598.911C986.02 589.59 985.169 571.241 990.626 563.471Z"/>
	<path fill="#FEFEFE" d="M1081.27 554.052C1089.52 553.968 1103.47 552.443 1110.14 557.796C1112.19 559.444 1113.35 561.255 1113.68 563.908C1118.05 569.547 1116.73 593.988 1115.81 601.576C1115.26 606.151 1113.75 610.974 1110.01 613.938C1102.86 619.597 1090.1 617.855 1081.52 617.565C1083.57 612.645 1083.48 608.796 1081.67 603.811C1082.11 602.958 1082.5 602.071 1082.72 601.13C1084.17 594.82 1084.13 558.487 1081.27 554.052Z"/>
	<path fill="#BB463E" d="M1091.93 564.485C1093.82 564.029 1095.67 563.689 1097.62 563.727C1099.96 563.772 1101.73 564.401 1103.27 566.234C1108.01 571.879 1106.81 583.433 1106.49 590.388C1106.25 595.884 1107.14 601.649 1102.92 605.509L1101.88 606.833C1098.88 607.538 1097.8 608.165 1094.88 607.03C1088.56 597.302 1096.26 576.138 1091.93 564.485Z"/>
	<path fill="#FEFEFE" d="M945.872 554.443C954.027 553.809 965.557 552.843 973.516 554.622C974.103 557.524 974.567 560.366 974.86 563.313C974.99 561.199 974.732 557.661 975.979 555.942C976.529 559.076 976.947 562.279 978.035 565.281C977.756 569.307 978.204 574.917 977.192 578.699C977.526 589.091 974.522 606.556 982.881 614.186C985.186 616.29 988.116 617.544 991.049 618.49C992.926 618.685 995.027 618.624 996.459 619.983Q994.108 620.334 991.739 620.531C985.963 620.991 980.679 616.277 976.589 612.754L975.655 613.167L974.197 616.108C973.412 616.64 972.854 617.043 971.916 617.268C966.035 618.678 952.409 618.964 947.096 616.142L946.242 613.24C946.396 593.765 947.238 573.866 945.872 554.443Z"/>
	<path fill="#BB463E" d="M974.86 563.313C974.99 561.199 974.732 557.661 975.979 555.942C976.529 559.076 976.947 562.279 978.035 565.281C977.756 569.307 978.204 574.917 977.192 578.699C977.526 589.091 974.522 606.556 982.881 614.186C985.186 616.29 988.116 617.544 991.049 618.49C992.926 618.685 995.027 618.624 996.459 619.983Q994.108 620.334 991.739 620.531C985.963 620.991 980.679 616.277 976.589 612.754L975.655 613.167C975.248 611.483 974.79 610.331 973.853 608.868C968.362 606.847 961.772 607.856 955.986 608.047L955.944 591.808C962.628 590.974 965.978 592.104 971.72 587.386L971.324 584.399C967.091 581.133 961.145 581.882 956.114 582.02L956.127 563.611Q965.496 563.632 974.86 563.313Z"/>
	<path fill="#FEFEFE" d="M1134.78 564.611C1137.36 562.906 1138.96 559.821 1141.41 557.845C1144.81 555.101 1150.31 552.649 1154.74 553.183C1159.77 553.789 1163.23 557.258 1166.13 561.102C1171.59 569.214 1169.41 599.994 1167.51 610.079Q1167.32 611.106 1167.06 612.119C1167.9 612.76 1168.76 613.562 1169.7 614.032C1171.39 615.872 1172.17 618.018 1172.97 620.354L1171.86 622.055C1165.95 624.182 1163.62 618.799 1158.9 618.102C1154.77 617.491 1151.31 621.419 1146.04 619.22C1128.65 611.973 1140.68 577.475 1135.03 565.107C1134.96 564.938 1134.86 564.777 1134.78 564.611Z"/>
	<path fill="#BB463E" d="M1147.77 564.492C1148.93 564.22 1150.3 563.81 1151.5 563.783C1153.71 563.732 1155.32 564.047 1156.77 565.812C1160.14 569.893 1159.61 579.685 1159.51 584.791C1159.35 592.71 1160.72 603.759 1154.71 609.509C1153.17 610.302 1151.8 609.986 1150.15 609.792C1148.13 608.158 1147.35 607.347 1146.61 604.787C1144.64 597.965 1144.55 570.359 1147.77 564.492Z"/>
	<path fill="#FEFEFE" d="M1358.58 562.499C1362.44 562.242 1366.37 562.289 1370.25 562.201C1370.85 562.783 1371.46 563.414 1371.92 564.111C1375.75 569.903 1386.48 592.712 1385.5 598.775C1385.98 598.333 1386.42 597.9 1386.86 597.42C1391.32 592.588 1400.65 569.251 1400.41 562.267L1414.26 562.524C1414.65 563.129 1414.79 563.27 1415.04 563.892C1417 568.676 1416.73 611.517 1414.45 617.165C1411.85 617.207 1408.19 617.609 1405.7 616.94C1403.03 616.22 1402.46 613.747 1401.33 611.512C1401.83 610.757 1402.28 609.96 1402.55 609.09C1404.63 602.478 1403.4 592.634 1400.18 586.703C1401.87 593.31 1395.81 607.233 1392.76 613.726C1391.65 616.099 1390.71 616.735 1388.39 617.572C1379.1 615.605 1375.58 594.886 1368.57 588.231L1368.21 587.898C1372.67 595.459 1371.89 608.461 1370.05 616.906L1356.73 617.024C1361.38 610.095 1359.46 571.928 1358.58 562.499Z"/>
	<path fill="#FEFEFE" d="M1327.69 561.745C1335.8 562.153 1342.45 565.252 1347.91 571.35C1352.67 576.675 1355.5 583.807 1354.92 590.998C1354.51 595.922 1352.34 602.429 1348.75 605.98C1348.72 606.189 1348.71 606.403 1348.65 606.605C1347.92 609.078 1344.42 612.372 1342.3 613.805C1337.18 617.272 1330.48 617.768 1324.54 616.602C1317.23 615.166 1310.32 610.545 1306.22 604.319C1299.51 594.135 1303.76 584.976 1305.87 574.416C1305.9 574.248 1305.93 574.08 1305.96 573.912C1315.11 569.573 1315.24 562.83 1327.69 561.745Z"/>
	<path fill="#CA6039" d="M1321.97 575.498C1325.58 574.742 1329.04 574.031 1332.61 575.371C1336.65 576.889 1339.84 580.188 1341.46 584.161Q1341.75 584.865 1341.96 585.595Q1342.18 586.326 1342.32 587.074Q1342.45 587.822 1342.52 588.581Q1342.58 589.339 1342.56 590.1Q1342.54 590.861 1342.44 591.616Q1342.35 592.371 1342.17 593.112Q1342 593.853 1341.75 594.572Q1341.5 595.291 1341.18 595.981C1339.34 599.94 1336.25 602.453 1332.24 603.974C1331.19 604.75 1330.55 604.936 1329.24 605.032C1325.78 605.287 1323.18 605.242 1320.44 602.845C1316.73 599.598 1315.55 594.828 1315.27 590.075C1314.9 583.776 1317.9 579.948 1321.97 575.498Z"/>
	<path fill="#FEFEFE" d="M909.875 554.117Q915.279 554.079 920.683 554.141C929.822 554.318 934.448 556.726 940.7 563.252L942.994 560.96C943.625 558.488 944.025 556.337 945.872 554.443C947.238 573.866 946.396 593.765 946.242 613.24L945.391 614.839L944.338 611.593L943.006 611.572C937.358 617.943 932.041 621.365 923.32 621.881C918.995 622.136 913.823 621.996 909.756 620.48L909.698 619.29C912.527 617.538 916.085 617.886 919.304 617.818C916.145 617.453 912.914 617.71 910.282 615.873C908.075 595.914 909.81 574.263 909.875 554.117Z"/>
	<path fill="#B0322E" d="M940.7 563.252L942.994 560.96C943.625 558.488 944.025 556.337 945.872 554.443C947.238 573.866 946.396 593.765 946.242 613.24L945.391 614.839L944.338 611.593L943.006 611.572C937.358 617.943 932.041 621.365 923.32 621.881C918.995 622.136 913.823 621.996 909.756 620.48L909.698 619.29C912.527 617.538 916.085 617.886 919.304 617.818C922.519 617.856 926.409 618.147 929.511 617.256C933.972 615.974 937.617 612.404 939.771 608.378C944.204 600.093 943.603 572.439 940.7 563.252Z"/>
	<path fill="#BB463E" d="M919.177 562.838L919.587 562.857C921.55 562.964 923.624 562.881 925.547 563.318C927.711 563.81 929.423 565.582 930.441 567.472C934.573 575.146 933.717 598.104 930.772 606.516C927.621 607.247 923.401 607.641 920.342 606.47C917.99 592.549 920.167 577.093 919.177 562.838Z"/>
	<path fill="#FEFEFE" d="M862.252 556.862C868.245 560.884 866.386 565.68 869.554 571.286C870.493 572.948 870.522 573.129 872.335 573.632L871.285 571.011C873.141 565.611 873.492 559.231 876.059 554.18C876.933 552.46 877.505 551.184 879.392 550.609C885.816 550.685 898.041 550.869 903.133 555.294C903.63 555.725 904.722 556.948 904.848 557.634C906.508 566.706 905.323 599.825 905.175 610.978C905.152 612.719 904.842 613.913 903.99 615.441C901.786 617.132 901.3 617.264 898.526 617.575L896.096 616.389C892.519 604.315 895.568 569.848 894.789 554.777C889.506 575.568 884.393 597.306 877.193 617.527L867.043 617.463C864.984 610.529 863.376 602.502 860.278 596.004C858.184 588.383 856.781 580.441 853.748 573.119C851.958 568.798 850.298 568.496 846.198 566.851L847.218 562.927C846.751 560.866 845.71 557.789 846.43 555.757C846.949 554.294 848.422 553.184 849.836 552.588C852.921 551.289 857.756 552.472 860.73 553.754C861.554 554.109 861.929 555.995 862.252 556.862Z"/>
	<path fill="#B0322E" d="M862.252 556.862C868.245 560.884 866.386 565.68 869.554 571.286C870.493 572.948 870.522 573.129 872.335 573.632L871.285 571.011C873.141 565.611 873.492 559.231 876.059 554.18C876.933 552.46 877.505 551.184 879.392 550.609C879.494 563.742 874.799 583.508 871.354 596.417Q866.96 576.603 862.252 556.862Z"/>
	<path fill="#CA6039" d="M1270.68 615.177C1266.62 610.715 1261.98 606.679 1259.32 601.157C1256.27 594.793 1256.33 587.192 1258.67 580.618C1261.28 573.293 1266.98 566.686 1274.12 563.469C1280.13 560.762 1286.71 560.73 1292.85 563.013C1295.77 564.22 1298.98 565.131 1300.81 567.859L1300.8 569.853C1302.29 571.185 1304.08 573.275 1305.96 573.912C1305.93 574.08 1305.9 574.248 1305.87 574.416C1303.76 584.976 1299.51 594.135 1306.22 604.319C1310.32 610.545 1317.23 615.166 1324.54 616.602C1330.48 617.768 1337.18 617.272 1342.3 613.805C1344.42 612.372 1347.92 609.078 1348.65 606.605C1348.71 606.403 1348.72 606.189 1348.75 605.98L1350.75 608.276C1350.13 611.398 1345.1 615.212 1342.46 616.992C1337.39 620.424 1331.88 622.719 1325.66 621.467C1319.53 620.233 1313.27 613.47 1307.45 613.435C1295.13 613.36 1290.07 629.749 1272.28 617.988L1270.68 615.177Z"/>
	<path fill="#FEFEFE" d="M1270.68 615.177C1266.62 610.715 1261.98 606.679 1259.32 601.157C1256.27 594.793 1256.33 587.192 1258.67 580.618C1261.28 573.293 1266.98 566.686 1274.12 563.469C1280.13 560.762 1286.71 560.73 1292.85 563.013C1295.77 564.22 1298.98 565.131 1300.81 567.859L1300.8 569.853L1300.46 570.589C1299.43 572.764 1298.56 574.149 1296.61 575.654C1289.06 576.632 1278.8 571.063 1273 578.104C1270.22 581.478 1268.9 586.822 1269.48 591.117Q1269.59 591.958 1269.78 592.784Q1269.97 593.61 1270.24 594.412Q1270.52 595.215 1270.87 595.986Q1271.22 596.757 1271.65 597.49Q1272.07 598.222 1272.57 598.908Q1273.07 599.593 1273.64 600.226Q1274.2 600.858 1274.83 601.431Q1275.45 602.004 1276.13 602.511C1279.17 604.77 1282.83 605.683 1286.57 604.969C1289.08 604.488 1292.49 602.955 1294.26 601.08C1297.7 603.215 1300.33 605.127 1302.24 608.792C1300.47 612.434 1296.75 615.017 1292.95 616.249C1285.53 618.654 1277.98 617.052 1270.68 615.177Z"/>
	<path fill="#FEFEFE" d="M1570.85 402.171C1570.97 402.041 1571.09 401.916 1571.19 401.779C1577.3 394.056 1565.54 380.94 1580.74 378.613C1590.58 377.107 1603.85 377.48 1612.09 383.533C1617.87 387.773 1620.88 394.196 1621.84 401.165C1623.76 415.159 1614.08 464.043 1606.22 474.414C1605.8 474.962 1605.36 475.463 1604.87 475.943L1660.31 479.163C1670.53 479.77 1681.62 479.578 1691.59 481.85C1696.34 482.934 1700.67 484.463 1703.94 488.229C1707.3 492.105 1710.06 496.824 1709.58 502.126C1709.06 507.946 1704.96 513.153 1700.52 516.655C1698.09 518.569 1695.32 520.16 1692.67 521.735C1696.89 530.492 1704.42 531.305 1700.18 543.385C1698.47 548.23 1694.88 554.894 1690.04 557.23C1687.77 558.327 1684.98 558.986 1682.57 559.726C1682.69 565.835 1697.91 577.121 1681.99 593.507C1679.56 596.01 1671.74 598.119 1671.85 600.386C1672.4 611.75 1682.23 614.666 1672.02 628.126C1670.54 630.065 1668.93 631.476 1666.94 632.847C1666.17 633.806 1665.17 634.431 1664.1 635.008C1653.41 640.755 1587.06 629.919 1572.6 626.977C1563.86 625.198 1555.26 622.595 1546.68 620.166C1543.41 617.159 1535.49 614.802 1531.21 614.003C1521.04 612.106 1509.96 612.862 1499.63 612.387C1486.54 611.784 1473.6 610.394 1460.58 609.004C1459.63 608.167 1457.75 607.832 1456.51 607.452C1450.46 601.049 1464.3 531.23 1458.82 518.002C1461.36 515.544 1460.7 511.753 1463.01 508.805C1469.97 507.676 1479.54 509.708 1486.74 510.149C1498.89 510.893 1510.85 510.866 1522.96 509.592C1527.45 507.688 1531.13 503.606 1534.55 500.214C1537.95 496.843 1546.59 488.682 1546.62 483.886C1554.05 479.432 1559.83 463.768 1562.68 455.849C1566.52 445.19 1575.71 412.555 1570.85 402.171Z"/>
</svg>
