<?xml version="1.0" encoding="utf-8" ?>
<svg xmlns="http://www.w3.org/2000/svg" xmlns:xlink="http://www.w3.org/1999/xlink" width="2048" height="1024">
	<path fill="#F7F7F6" fill-opacity="0.06666667" d="M323.029 703.485C345.767 717.098 372.633 726.742 399.517 723.746C423.393 721.085 429.011 712.243 442.72 695.2L443.081 694.756C447.006 698.819 455.051 697.84 460.52 697.937C485.337 698.379 510.086 696.883 534.884 696.283C560.915 695.653 587.05 695.881 613.091 696.073C640.037 696.272 667.259 696.582 694.193 697.425C708.74 697.88 739.205 701.13 751.865 698.389C753.04 698.134 753.64 697.765 754.532 696.987L754.752 694.844C768.807 710.716 781.531 721.553 803.632 722.961C827.163 724.46 850.468 715.297 870.073 702.915C879.055 711.463 920.157 708.157 922.618 721.042C921.12 724.308 917.787 725.568 914.609 726.737C880.567 739.258 807.968 740.161 769.566 741.786Q612.936 748.574 456.222 744.106C412.602 742.777 368.268 742.218 324.901 737.085C310.076 735.33 293.277 733.112 279.571 726.818C276.283 725.308 273.303 723.105 270.43 720.927C283.421 712.296 320.361 706.374 323.029 703.485Z"/>
	<path fill="#BB483D" d="M1207.96 524.054C1207.94 523.384 1189.89 497.084 1187.28 491.478C1173.37 461.654 1171.28 429.791 1182.73 398.816C1194 368.344 1217.1 345.199 1246.42 331.736C1278.34 317.074 1317.15 315.342 1350.12 327.638C1379.41 338.563 1405.55 360.213 1418.72 388.879C1418.52 389.784 1426.19 411.437 1426.97 415.859C1430.92 438.21 1424.18 486.608 1406.02 502.11C1401.43 516.368 1374.66 534.098 1361.91 540.622C1344.16 549.707 1321.82 556.462 1301.73 556.145C1282.75 554.855 1260.14 553.398 1242.28 546.562C1233.62 543.25 1227.67 535.598 1219.32 531.815C1219.07 531.702 1218.81 531.594 1218.56 531.484L1045.03 530.905C1021.77 530.869 998.307 532.018 975.11 531.599C965.152 531.419 914.322 530.27 908.642 526.996C910.147 524.909 912.85 525.013 915.325 524.499L1207.96 524.054Z"/>
	<path fill="#B0322E" d="M1218.87 495.992C1220.22 493.336 1219.39 489.229 1219.51 486.226C1220.01 474.267 1219.18 441.862 1225.7 433.847C1225.78 434.049 1225.87 434.249 1225.95 434.454C1230.16 445.885 1218.64 486.111 1228.12 490.785C1239.27 496.28 1257.11 492.817 1269.62 494.325C1278.6 495.408 1287.67 498.043 1296.54 499.899C1314.2 503.591 1334.85 506.475 1352.86 504.836C1353.85 505.35 1354.31 505.834 1355.11 506.605L1354.55 508.048C1333.76 515.174 1286.34 502.907 1263.7 500.205C1248.69 498.413 1233.85 498.679 1218.87 495.992Z"/>
	<path fill="#F7F7F6" d="M1289.96 354.712C1296.94 353.328 1306.54 350.355 1313.03 354.697C1316.76 357.187 1318.65 361.752 1319.41 366.008C1321.29 376.599 1317.88 398.242 1311.93 407.217C1311.44 407.96 1310.9 408.46 1310.24 409.044C1326.21 409.215 1368.62 406.767 1379.97 418.958C1381.03 420.099 1381.55 421.318 1382.01 422.784C1381.64 427.865 1378.45 430.3 1374.86 433.413C1373.1 434.936 1371.38 436.517 1369.33 437.626C1372.11 441.296 1375.95 446.127 1375.09 451.072C1374.6 453.819 1372.76 456.107 1370.47 457.611C1368.38 458.981 1366.09 460.144 1363.88 461.3C1365.98 464.2 1368.52 468.985 1367.85 472.659C1366.87 478.01 1360.48 481.016 1358.87 486.258C1356.67 493.404 1363.38 498.556 1355.09 503.586C1354.36 504.03 1353.61 504.439 1352.86 504.836C1334.85 506.475 1314.2 503.591 1296.54 499.899C1287.67 498.043 1278.6 495.408 1269.62 494.325C1257.11 492.817 1239.27 496.28 1228.12 490.785C1218.64 486.111 1230.16 445.885 1225.95 434.454C1225.87 434.249 1225.78 434.049 1225.7 433.847C1235.48 429.521 1249.36 430.964 1259.92 431C1273.57 423.45 1283.25 403.003 1287.42 388.588C1289.95 379.839 1292.93 363.258 1289.96 354.712Z"/>
	<path fill="#102B40" d="M408.858 320.339C417.151 315.702 426.101 313.359 435.464 312.034C451.507 309.763 474.179 309.171 487.638 319.566C495.281 325.468 497.399 332.571 498.607 341.726C511.457 347.669 521.687 356.019 531.798 365.794C555.658 367.267 580.226 366.07 604.172 366.181C625.797 366.281 647.791 367.953 669.338 365.923C680.827 356.446 692.296 347.426 704.938 339.523C706.074 333.038 708.429 327.836 711.563 322.133C717.982 317.707 724.308 315.269 731.893 313.745C748.963 310.315 776.721 310.381 791.598 320.608C799.161 325.806 801.269 331.17 802.805 339.896C807.544 342.021 812.196 344.673 816.568 347.474Q819.201 349.174 821.739 351.011Q824.278 352.848 826.715 354.817Q829.153 356.787 831.482 358.883Q833.811 360.979 836.026 363.196Q838.241 365.413 840.335 367.744Q842.428 370.076 844.395 372.515Q846.362 374.955 848.197 377.495Q850.031 380.036 851.728 382.67C871.267 412.638 894.591 488.426 902.668 524.698C889.373 525.717 876.256 525.506 862.96 524.854C867.734 520.532 876.463 525.461 881.776 520.383C881.807 519.859 881.827 519.333 881.827 518.809C881.834 509.328 855.304 428.748 849.908 415.893C847.458 410.057 845.029 404.27 840.525 399.693C841.521 402.8 842.349 406.221 843.689 409.184L841.55 412.883C835.56 396.104 825.961 382.185 811.765 371.27Q810.851 370.565 809.92 369.883Q808.989 369.201 808.041 368.543Q807.093 367.884 806.13 367.249Q805.166 366.613 804.187 366.002Q803.208 365.391 802.214 364.804Q801.22 364.217 800.213 363.655Q799.205 363.093 798.183 362.555Q797.162 362.018 796.127 361.506Q795.093 360.994 794.046 360.508Q792.999 360.022 791.941 359.561Q790.883 359.101 789.813 358.667Q788.744 358.233 787.664 357.825Q786.584 357.418 785.495 357.037Q784.405 356.656 783.307 356.302Q782.208 355.948 781.101 355.621Q779.994 355.295 778.88 354.995Q777.765 354.696 776.643 354.424Q775.521 354.152 774.393 353.909Q773.265 353.664 772.132 353.448Q770.998 353.232 769.859 353.044Q768.72 352.856 767.577 352.696Q766.434 352.536 765.288 352.404Q764.141 352.272 762.992 352.169Q761.842 352.065 760.69 351.99Q759.539 351.915 758.385 351.868Q757.232 351.822 756.078 351.803Q754.924 351.785 753.77 351.795Q752.616 351.805 751.463 351.844Q750.309 351.883 749.157 351.95Q748.005 352.017 746.854 352.112Q745.704 352.207 744.557 352.331Q743.409 352.455 742.265 352.607C716.988 356.007 698.894 367.722 683.586 387.761C681.47 388.92 679.344 390.242 677.123 391.181C631.724 389.912 582.304 389.659 537.015 391.273C535.314 391.222 533.543 391.195 531.863 390.901C528.527 390.318 526.875 387.491 525.045 384.922C512.491 369.073 501.585 359.801 482.963 351.627C482.388 348.437 481.9 345.025 480.909 341.938C479.35 337.086 475.161 333.337 470.663 331.17C457.082 324.63 436.188 328.924 422.579 333.579C421.874 337.736 421.461 342.783 419.771 346.641C418.021 350.634 415.18 351.766 411.403 353.318C397.813 359.832 386.787 367.191 376.853 378.651C372.021 384.692 367.759 390.949 364.495 397.991C335.947 439.3 300.578 601.929 309.379 650.395C310.786 658.144 314.214 672.677 320.864 677.214C320.99 677.3 321.132 677.359 321.265 677.431C324.773 677.716 328.817 681.45 331.916 683.302C351.916 695.254 379.096 704.573 402.532 698.399C407.315 697.138 410.467 695.339 413.748 691.649C424.319 679.76 431.657 663.118 439.575 649.273Q459.244 614.905 479.268 580.742C487.581 583.154 496.332 585.18 504.845 586.74C523.328 590.128 544.726 591.856 560.934 580.473C570.107 574.032 578.544 563.178 580.522 552.02C581.403 547.047 581.518 541.421 585.93 538.343C588.823 539.032 589.558 539.954 591.64 541.962C594.161 539.171 595.425 534.612 596.833 531.128C608.999 531.224 622.976 529.744 634.827 531.847C638.545 528.809 639.592 523.621 641.314 519.305C644.439 511.475 651.483 506.26 659.101 503.093Q660.028 502.712 660.973 502.377Q661.917 502.042 662.877 501.754Q663.837 501.466 664.81 501.226Q665.783 500.985 666.766 500.793Q667.75 500.601 668.742 500.457Q669.734 500.313 670.731 500.218Q671.729 500.123 672.73 500.078Q673.731 500.032 674.733 500.035Q675.735 500.039 676.736 500.092Q677.737 500.145 678.734 500.247Q679.731 500.349 680.722 500.499Q681.712 500.65 682.694 500.85Q683.677 501.049 684.648 501.296Q685.619 501.544 686.577 501.839Q687.535 502.133 688.477 502.475Q689.419 502.817 690.343 503.204C702.353 508.3 708.355 517.3 713.059 528.896L713.387 529.822C714.616 530.946 715.852 531.543 717.487 531.788C726.029 533.069 735.883 532.085 744.57 532.122C770.46 532.234 796.207 531.615 822.078 531.092C824.663 528.85 827.51 526.934 830.299 524.957C833.414 533.096 840.032 545.934 839.534 554.508C836.951 555.084 834.454 555.528 831.817 555.808C835.357 555.75 839.653 555.16 842.658 557.295C844.298 559.627 845.09 561.531 845.861 564.236L845.891 567.076L847.021 567.172C851.042 568.763 852.65 570.736 854.387 574.657C857.425 581.512 858.718 589.749 860.7 597.012L856.1 595.765C853.49 601.97 859.729 609.928 858.493 617.079C861.26 627.459 864.081 637.685 867.724 647.804C872.899 651.058 899.463 646.731 908.79 649.575C903.918 670.083 886.652 690.586 870.073 702.915C850.468 715.297 827.163 724.46 803.632 722.961C781.531 721.553 768.807 710.716 754.752 694.844L754.532 696.987C753.64 697.765 753.04 698.134 751.865 698.389C739.205 701.13 708.74 697.88 694.193 697.425C667.259 696.582 640.037 696.272 613.091 696.073C587.05 695.881 560.915 695.653 534.884 696.283C510.086 696.883 485.337 698.379 460.52 697.937C455.051 697.84 447.006 698.819 443.081 694.756L442.72 695.2C429.011 712.243 423.393 721.085 399.517 723.746C372.633 726.742 345.767 717.098 323.029 703.485C314.546 696.196 306.874 688.392 301.345 678.571C294.025 665.57 291.229 650.605 290.536 635.836C289.811 620.387 292.341 604.818 294.212 589.519C298.832 551.735 303.355 521.904 313.759 484.853C330.023 426.934 345.106 370.309 401.318 338.775C403.616 332.539 406.247 326.449 408.858 320.339ZM492.183 610.588C486.708 621.412 479.973 631.867 473.863 642.364C463.669 659.877 453.676 677.477 443.081 694.756C447.006 698.819 455.051 697.84 460.52 697.937C485.337 698.379 510.086 696.883 534.884 696.283C560.915 695.653 587.05 695.881 613.091 696.073C640.037 696.272 667.259 696.582 694.193 697.425C708.74 697.88 739.205 701.13 751.865 698.389C753.04 698.134 753.64 697.765 754.532 696.987L754.752 694.844C743.77 680.772 735.06 664.929 726.895 649.102C667.957 648.634 608.996 650.151 550.054 649.718C561.302 634.44 572.033 620.238 579.17 602.477C550.621 617.468 523.054 615.138 492.183 610.588Z"/>
	<path fill="#F7F7F6" d="M808.674 569.602C808.768 577.734 810.951 611.176 807.002 615.877C804.523 617.082 803.126 617.037 800.448 616.51C798.305 613.255 798.632 608.399 798.536 604.516C798.31 595.399 796.879 561.359 801.711 556.267C804.745 555.602 805.976 556.157 808.869 557.049L808.674 569.602Z"/>
	<path fill="#F7F7F6" d="M812.081 559.966C812.601 558.929 813.199 558.062 814.116 557.325C818.205 554.039 826.869 555.534 831.817 555.808C835.357 555.75 839.653 555.16 842.658 557.295C844.298 559.627 845.09 561.531 845.861 564.236C842.41 564.444 837.136 564.128 834.418 566.344L833.668 568.916C834.119 580.122 837.572 605.663 831.832 615.132C829.347 616.869 828.981 617.009 825.954 617.087C820.883 612.271 824.666 575.954 823.255 566.931L823.095 565.958C821.299 564.51 816.298 564.802 813.939 564.756C811.984 563.054 812.305 562.599 812.081 559.966Z"/>
	<path fill="#030A11" d="M845.861 564.236L845.891 567.076L847.021 567.172C851.042 568.763 852.65 570.736 854.387 574.657C857.425 581.512 858.718 589.749 860.7 597.012L856.1 595.765C853.49 601.97 859.729 609.928 858.493 617.079C861.26 627.459 864.081 637.685 867.724 647.804L865.468 648.344C850.93 645.486 846.703 585.947 833.668 568.916L834.418 566.344C837.136 564.128 842.41 564.444 845.861 564.236Z"/>
	<path fill="#BB483D" d="M847.021 567.172C851.042 568.763 852.65 570.736 854.387 574.657C857.425 581.512 858.718 589.749 860.7 597.012L856.1 595.765C853.49 601.97 859.729 609.928 858.493 617.079C853.935 606.97 844.69 578.218 845.891 567.076L847.021 567.172Z"/>
	<path fill="#738794" d="M671.161 507.155C676.331 506.747 681.845 507.35 686.73 509.101C696.874 512.735 701.763 521.017 706.165 530.179C697.675 529.484 689.219 529.302 680.708 529.169Q661.777 529.811 642.836 530.073C644.297 526.855 645.899 523.643 647.797 520.66C653.372 511.902 661.587 509.196 671.161 507.155Z"/>
	<path fill="#405E75" d="M722.563 350.782C722.917 346.147 723.581 339.351 726.777 335.755C731.583 330.348 741.428 329.276 748.275 328.778C758.578 328.027 770.913 327.625 779.09 334.935C784.016 339.339 783.969 345.13 784.256 351.251L777.045 349.124C761.512 345.985 746.449 345.74 731.073 349.703C716.086 354.729 706.306 361.059 694.407 371.43C690.441 374.887 686.63 378.87 682.191 381.705C689.606 366.535 708.015 357.472 722.563 350.782Z"/>
	<path fill="#1D3C53" d="M731.073 349.703C730.406 346.704 729.855 344.033 731.759 341.296C734.844 336.863 741.798 335.208 746.812 334.627C754.935 333.686 766.847 333.651 773.421 339.047C776.357 341.457 776.603 345.585 777.045 349.124C761.512 345.985 746.449 345.74 731.073 349.703Z"/>
	<path fill="#F7F7F6" d="M786.007 554.441C787.256 554.974 788.598 555.525 789.648 556.403C793.401 559.54 792.592 581.3 792.765 586.899C793.03 595.463 793.089 607.602 786.697 614.109C783.794 617.063 780 618.167 775.927 618.17C772.127 618.174 768.477 616.887 765.847 614.082C757.425 605.099 759.841 583.892 759.976 572.25C760.052 567.288 759.466 561.171 761.227 556.504C763.411 555.374 764.564 555.636 766.961 555.774C775.387 562.557 765.942 594.154 770.537 604.897C771.708 607.634 773.527 608.943 776.23 609.948C788.971 605.095 777.601 566.839 785.436 555.271L786.007 554.441Z"/>
	<path fill="#405E75" d="M747.835 649.058Q749.862 648.973 751.89 648.941C753.546 648.92 756.498 648.894 757.873 650.01C767.937 658.176 775.161 678.172 785.949 688.455C801.998 703.753 828.998 698.882 846.712 688.828C853.312 685.083 862.398 675.145 870.181 675.291C871.679 675.319 871.754 675.835 872.727 676.933L872.502 680.397Q862.413 688.147 851.289 694.319C835.55 702.964 816.19 709.855 798.231 704.449C773.565 697.025 759.367 670.043 747.835 649.058Z"/>
	<path fill="#F7F7F6" d="M614.719 556.905C624.075 556.635 635.137 555.558 643.186 561.211C645.916 566.918 650.118 574.906 647.725 581.293C645.688 586.733 638.317 590.166 633.293 592.13C630.245 593.321 626.492 594.191 624.01 596.373C624.439 600.49 624.941 604.653 625.027 608.793C625.113 612.945 624.891 615.448 621.929 618.486C619.5 618.952 618.324 618.505 616.162 617.375C611.392 608.975 614.489 568.869 614.719 556.905Z"/>
	<path fill="#102B40" d="M624.147 565.447C626.408 565.496 628.629 565.649 630.841 566.145C632.59 566.537 634.807 567.634 635.73 569.212C638.395 573.769 636.612 578.601 635.309 583.328C633.624 583.629 631.639 584.134 629.936 584.089C627.413 584.022 626.662 583.148 624.937 581.537C622.833 576.897 623.924 570.452 624.147 565.447Z"/>
	<path fill="#F7F7F6" d="M649.945 559.359C654.96 554.685 664.055 556.047 670.59 556.062C676.268 559.878 681.616 563.764 682.933 570.959C684.271 578.269 680.509 584.502 676.417 590.174Q675.599 591.331 674.73 592.45C677.547 598.672 684.27 609.683 682.17 616.368C680.18 618.097 679.793 618.166 677.162 618.529C672.328 612.837 668.612 595 662.053 592.8C659.796 595.082 659.937 598.378 659.952 601.484C659.975 606.281 660.772 611.656 658.781 616.131C657.068 617.801 656.951 618.019 654.603 618.31C651.183 615.591 650.754 612.113 650.283 607.914C649.243 598.65 649.826 588.887 649.996 579.581C650.291 572.795 650.271 566.143 649.945 559.359Z"/>
	<path fill="#102B40" d="M660.085 565.372C662.202 565.37 664.273 565.52 666.346 565.959C668.136 566.338 670.509 567.524 671.466 569.129C674.092 573.535 672.815 577.922 671.684 582.622C669.874 583.296 666.829 584.251 664.868 584.033C663.319 583.861 662.174 583.34 661.201 582.146C658.12 578.368 659.759 570.018 660.085 565.372Z"/>
	<path fill="#F7F7F6" d="M686.138 608.068C688.342 595.262 685.477 582.926 686.837 570.355C687.322 565.871 688.86 561.977 692.531 559.171C696.045 556.485 700.892 555.561 705.21 556.279Q706.125 556.434 707.021 556.679Q707.916 556.924 708.783 557.256Q709.65 557.588 710.48 558.004Q711.31 558.42 712.095 558.916Q712.88 559.411 713.613 559.982Q714.345 560.553 715.017 561.193Q715.689 561.833 716.295 562.537Q716.901 563.24 717.435 564C721.073 578.183 722.244 599.577 714.457 612.514C712.596 615.606 709.911 618.396 706.309 619.311C702.488 620.282 698.04 618.696 694.901 616.522C691.599 614.235 688.746 611.1 686.138 608.068Z"/>
	<path fill="#102B40" d="M699.116 564.348C700.615 564.609 702.346 564.835 703.758 565.414C706.09 566.372 707.445 568.587 708.326 570.844C712.622 581.844 710.648 599.201 705.951 609.742C704.512 609.567 702.827 609.435 701.463 608.93C699.115 608.061 697.698 605.933 696.811 603.696C692.445 592.674 694.396 574.919 699.116 564.348Z"/>
	<path fill="#738794" d="M731.073 349.703C746.449 345.74 761.512 345.985 777.045 349.124L784.256 351.251C809.549 359.374 827.153 377.306 840.525 399.693C841.521 402.8 842.349 406.221 843.689 409.184L841.55 412.883C835.56 396.104 825.961 382.185 811.765 371.27Q810.851 370.565 809.92 369.883Q808.989 369.201 808.041 368.543Q807.093 367.884 806.13 367.249Q805.166 366.613 804.187 366.002Q803.208 365.391 802.214 364.804Q801.22 364.217 800.213 363.655Q799.205 363.093 798.183 362.555Q797.162 362.018 796.127 361.506Q795.093 360.994 794.046 360.508Q792.999 360.022 791.941 359.561Q790.883 359.101 789.813 358.667Q788.744 358.233 787.664 357.825Q786.584 357.418 785.495 357.037Q784.405 356.656 783.307 356.302Q782.208 355.948 781.101 355.621Q779.994 355.295 778.88 354.995Q777.765 354.696 776.643 354.424Q775.521 354.152 774.393 353.909Q773.265 353.664 772.132 353.448Q770.998 353.232 769.859 353.044Q768.72 352.856 767.577 352.696Q766.434 352.536 765.288 352.404Q764.141 352.272 762.992 352.169Q761.842 352.065 760.69 351.99Q759.539 351.915 758.385 351.868Q757.232 351.822 756.078 351.803Q754.924 351.785 753.77 351.795Q752.616 351.805 751.463 351.844Q750.309 351.883 749.157 351.95Q748.005 352.017 746.854 352.112Q745.704 352.207 744.557 352.331Q743.409 352.455 742.265 352.607C716.988 356.007 698.894 367.722 683.586 387.761C681.47 388.92 679.344 390.242 677.123 391.181C631.724 389.912 582.304 389.659 537.015 391.273C535.314 391.222 533.543 391.195 531.863 390.901C528.527 390.318 526.875 387.491 525.045 384.922Q576.635 384.888 628.218 383.999C643.495 383.862 659.276 385.378 674.488 384.152C677.988 383.87 679.297 383.728 682.191 381.705C686.63 378.87 690.441 374.887 694.407 371.43C706.306 361.059 716.086 354.729 731.073 349.703Z"/>
	<path fill="#F7F7F6" d="M724 556.048C731.534 555.901 744.205 554.286 750.32 559.824C756.689 565.59 757.024 580.742 756.942 588.912C756.872 595.944 756.361 608.465 750.814 613.365C744.548 618.9 731.808 617.886 723.927 617.835L723.829 600.386C724.234 592.349 723.945 584.241 723.856 576.195L724 556.048Z"/>
	<path fill="#102B40" d="M733.304 564.825C735.354 564.886 737.598 564.876 739.593 565.368C742.157 566 743.985 567.937 745.161 570.216C750.042 579.672 747.349 597.426 744.309 607.28C741.24 607.917 737.94 609.019 734.855 608.177C730.92 597.339 733.205 576.594 733.304 564.825Z"/>
	<path fill="#405E75" d="M479.268 580.742C487.581 583.154 496.332 585.18 504.845 586.74C523.328 590.128 544.726 591.856 560.934 580.473C570.107 574.032 578.544 563.178 580.522 552.02C581.403 547.047 581.518 541.421 585.93 538.343C588.823 539.032 589.558 539.954 591.64 541.962C582.604 562.158 580.015 584.443 556.664 593.454C534.977 601.823 505.916 598.731 484.141 592.217Q465.129 624.122 446.595 656.306C438.695 669.921 431.49 685.902 420.618 697.375C416.309 701.921 411.779 704.657 405.676 706.121C385.152 711.045 357.104 704.699 339.425 693.639Q336.839 692.006 334.397 690.165Q331.955 688.323 329.674 686.287Q327.392 684.251 325.286 682.033Q323.181 679.815 321.265 677.431C324.773 677.716 328.817 681.45 331.916 683.302C351.916 695.254 379.096 704.573 402.532 698.399C407.315 697.138 410.467 695.339 413.748 691.649C424.319 679.76 431.657 663.118 439.575 649.273Q459.244 614.905 479.268 580.742Z"/>
	<path fill="#1D3C53" d="M422.579 333.579C436.188 328.924 457.082 324.63 470.663 331.17C475.161 333.337 479.35 337.086 480.909 341.938C481.9 345.025 482.388 348.437 482.963 351.627C501.585 359.801 512.491 369.073 525.045 384.922C526.875 387.491 528.527 390.318 531.863 390.901C533.543 391.195 535.314 391.222 537.015 391.273C582.304 389.659 631.724 389.912 677.123 391.181C679.344 390.242 681.47 388.92 683.586 387.761C698.894 367.722 716.988 356.007 742.265 352.607Q743.409 352.455 744.557 352.331Q745.704 352.207 746.854 352.112Q748.005 352.017 749.157 351.95Q750.309 351.883 751.463 351.844Q752.616 351.805 753.77 351.795Q754.924 351.785 756.078 351.803Q757.232 351.822 758.385 351.868Q759.539 351.915 760.69 351.99Q761.842 352.065 762.992 352.169Q764.141 352.272 765.288 352.404Q766.434 352.536 767.577 352.696Q768.72 352.856 769.859 353.044Q770.998 353.232 772.131 353.448Q773.265 353.664 774.393 353.909Q775.521 354.152 776.643 354.424Q777.765 354.696 778.879 354.995Q779.994 355.295 781.101 355.621Q782.208 355.948 783.307 356.302Q784.405 356.656 785.495 357.037Q786.584 357.418 787.664 357.825Q788.744 358.233 789.813 358.667Q790.883 359.101 791.941 359.561Q792.999 360.022 794.046 360.508Q795.093 360.994 796.127 361.506Q797.162 362.018 798.183 362.555Q799.205 363.093 800.213 363.655Q801.22 364.217 802.214 364.804Q803.208 365.391 804.187 366.002Q805.166 366.613 806.13 367.249Q807.093 367.884 808.041 368.543Q808.989 369.201 809.92 369.883Q810.851 370.565 811.765 371.27C825.961 382.185 835.56 396.104 841.55 412.883L843.689 409.184C842.349 406.221 841.521 402.8 840.525 399.693C845.029 404.27 847.458 410.057 849.908 415.893C855.304 428.748 881.834 509.328 881.827 518.809C881.827 519.333 881.807 519.859 881.776 520.383C876.463 525.461 867.734 520.532 862.96 524.854Q846.63 525.053 830.299 524.957C827.51 526.934 824.663 528.85 822.078 531.092C796.207 531.615 770.46 532.234 744.57 532.122C735.883 532.085 726.029 533.069 717.487 531.788C715.852 531.543 714.616 530.946 713.387 529.822L713.059 528.896C708.355 517.3 702.353 508.3 690.343 503.204Q689.419 502.817 688.477 502.475Q687.534 502.133 686.577 501.839Q685.619 501.544 684.648 501.296Q683.677 501.049 682.694 500.85Q681.712 500.65 680.722 500.499Q679.731 500.349 678.734 500.247Q677.737 500.145 676.736 500.092Q675.735 500.039 674.733 500.035Q673.731 500.032 672.73 500.078Q671.729 500.123 670.731 500.218Q669.733 500.313 668.742 500.457Q667.75 500.601 666.766 500.793Q665.783 500.985 664.81 501.226Q663.837 501.466 662.877 501.754Q661.917 502.042 660.973 502.377Q660.028 502.712 659.101 503.093C651.483 506.26 644.439 511.475 641.314 519.305C639.592 523.621 638.545 528.809 634.827 531.847C622.976 529.744 608.999 531.224 596.833 531.128C595.425 534.612 594.161 539.171 591.64 541.962C589.558 539.954 588.823 539.032 585.93 538.343C581.518 541.421 581.403 547.047 580.522 552.02C578.544 563.178 570.107 574.032 560.934 580.473C544.726 591.856 523.328 590.128 504.845 586.74C496.332 585.18 487.581 583.154 479.268 580.742Q459.245 614.905 439.575 649.273C431.657 663.118 424.319 679.76 413.748 691.649C410.467 695.339 407.315 697.138 402.532 698.399C379.096 704.573 351.916 695.254 331.916 683.302C328.817 681.45 324.773 677.716 321.265 677.431C321.132 677.359 320.99 677.3 320.864 677.214C314.214 672.677 310.786 658.144 309.379 650.395C300.578 601.929 335.947 439.3 364.495 397.991C367.759 390.949 372.021 384.692 376.853 378.651C386.787 367.191 397.813 359.832 411.403 353.318C415.18 351.766 418.021 350.634 419.771 346.641C421.461 342.783 421.874 337.736 422.579 333.579Z"/>
	<path fill="#F7F7F6" d="M637.914 464.231C640.685 464.009 643.693 464.01 646.455 464.298C649.937 464.663 656.29 466.559 658.437 469.459C659.268 470.581 658.874 471.341 658.698 472.651C656.456 475.414 653.116 476.044 649.848 477.028C645.754 477.265 641.271 477.439 637.245 476.615C633.003 475.745 628.246 474.339 625.834 470.634L626.62 468.607C629.816 465.962 633.984 465.236 637.914 464.231Z"/>
	<path fill="#102B40" d="M561.537 460.321C565.214 459.682 572.6 461.311 575.749 463.247C578.235 464.775 580.444 467.307 580.988 470.247C581.368 472.299 580.793 474.398 579.549 476.055C576.268 480.424 570.61 480.877 565.611 481.329C560.794 481.364 554.928 481.78 550.427 479.834C546.983 478.344 544.521 475.977 543.196 472.467C543.077 470.299 543.229 468.73 544.563 466.933C548.391 461.775 555.66 461.081 561.537 460.321Z"/>
	<path fill="#F7F7F6" d="M552.202 465.206C559.519 464.767 569.519 464.138 576.143 467.596C578.185 468.662 578.583 469.14 579.248 471.278C577.572 474.393 575.96 474.993 572.994 476.833C565.725 477.287 554.605 478.259 548.191 474.438C546.169 473.232 546.142 472.934 545.538 470.802C546.64 467.71 549.481 466.65 552.202 465.206Z"/>
	<path fill="#405E75" d="M683.586 387.761C672.493 409.284 666.512 430.15 674.117 454.011C680.948 475.443 696.863 492.995 716.776 503.169Q717.755 503.672 718.746 504.15Q719.737 504.628 720.74 505.082Q721.742 505.536 722.756 505.965Q723.769 506.394 724.793 506.798Q725.816 507.202 726.85 507.581Q727.883 507.96 728.925 508.314Q729.967 508.667 731.018 508.995Q732.068 509.322 733.127 509.624Q734.185 509.926 735.251 510.202Q736.316 510.477 737.388 510.727Q738.46 510.976 739.537 511.199Q740.615 511.422 741.698 511.619Q742.781 511.816 743.868 511.986Q744.955 512.156 746.046 512.299Q747.137 512.442 748.232 512.558Q749.326 512.675 750.423 512.764Q751.52 512.854 752.618 512.916Q753.717 512.979 754.817 513.014Q755.917 513.05 757.018 513.058Q758.118 513.067 759.218 513.048Q760.319 513.03 761.418 512.984Q762.518 512.938 763.616 512.866Q764.714 512.793 765.81 512.694Q766.906 512.595 767.999 512.468Q769.093 512.342 770.182 512.189Q771.272 512.036 772.358 511.856Q773.444 511.676 774.524 511.47Q775.605 511.263 776.681 511.03Q777.757 510.797 778.826 510.538Q779.896 510.279 780.959 509.994Q782.021 509.708 783.077 509.397Q784.132 509.085 785.18 508.748C805.953 501.996 825.382 487.456 835.471 467.722C844.347 450.361 844.711 431.748 841.55 412.883L843.689 409.184C849.625 428.673 848.726 447.081 840.092 465.705C830.286 486.857 811.942 502.434 790.188 510.403Q789.096 510.798 787.995 511.165Q786.894 511.533 785.784 511.873Q784.674 512.214 783.557 512.527Q782.439 512.84 781.314 513.126Q780.188 513.412 779.057 513.67Q777.925 513.928 776.787 514.158Q775.649 514.388 774.506 514.59Q773.363 514.792 772.215 514.966Q771.068 515.14 769.916 515.286Q768.764 515.432 767.609 515.549Q766.454 515.667 765.297 515.756Q764.139 515.845 762.98 515.906Q761.821 515.967 760.66 515.999Q759.5 516.031 758.339 516.035Q757.178 516.039 756.018 516.014Q754.857 515.99 753.698 515.937Q752.538 515.883 751.38 515.802Q750.222 515.72 749.066 515.61Q747.911 515.5 746.758 515.362Q745.605 515.224 744.457 515.057Q743.308 514.891 742.163 514.696Q741.019 514.502 739.88 514.279Q738.74 514.056 737.607 513.806Q736.473 513.555 735.346 513.277Q734.219 512.999 733.099 512.693Q731.98 512.387 730.867 512.054Q729.755 511.72 728.652 511.36Q727.549 511 726.454 510.612Q725.36 510.225 724.275 509.811Q723.191 509.397 722.117 508.956Q721.043 508.515 719.98 508.049Q718.917 507.582 717.866 507.089Q716.872 506.639 715.89 506.164Q714.908 505.689 713.938 505.19Q712.967 504.691 712.01 504.168Q711.053 503.645 710.109 503.098Q709.165 502.551 708.235 501.98Q707.305 501.41 706.389 500.817Q705.474 500.223 704.573 499.607Q703.673 498.991 702.788 498.353Q701.903 497.715 701.035 497.054Q700.166 496.394 699.314 495.712Q698.462 495.031 697.628 494.328Q696.793 493.625 695.977 492.902Q695.16 492.178 694.361 491.435Q693.563 490.691 692.783 489.928Q692.004 489.165 691.244 488.383Q690.483 487.6 689.743 486.799Q689.002 485.998 688.282 485.178Q687.562 484.359 686.862 483.522Q686.162 482.685 685.484 481.83Q684.805 480.976 684.148 480.105Q683.491 479.234 682.856 478.347Q682.221 477.46 681.609 476.557Q680.996 475.654 680.406 474.737Q679.816 473.819 679.249 472.887Q678.682 471.954 678.139 471.008Q677.595 470.062 677.076 469.103Q676.556 468.144 676.06 467.172Q675.565 466.2 675.094 465.216Q674.623 464.232 674.176 463.236Q673.73 462.241 673.308 461.234Q672.887 460.228 672.491 459.212Q672.095 458.195 671.724 457.169C663.573 434.527 667.085 412.535 677.123 391.181C679.344 390.242 681.47 388.92 683.586 387.761Z"/>
	<path fill="#102B40" d="M526.878 498.292C537.099 498.817 546.491 500.849 554.775 507.265Q555.566 507.884 556.326 508.542Q557.086 509.2 557.813 509.894Q558.539 510.588 559.231 511.317Q559.923 512.046 560.578 512.808Q561.233 513.571 561.849 514.364Q562.466 515.158 563.043 515.98Q563.62 516.803 564.155 517.654Q564.691 518.504 565.184 519.38Q565.677 520.255 566.127 521.154Q566.576 522.053 566.981 522.972Q567.386 523.892 567.745 524.831Q568.104 525.769 568.417 526.725Q568.729 527.68 568.994 528.649Q569.259 529.618 569.476 530.6Q569.693 531.581 569.862 532.571Q570.03 533.562 570.15 534.56C571.357 544.552 568.749 554.741 562.411 562.624C554.343 572.659 542.233 577.098 529.793 578.382C519.374 578.246 510.009 576.619 501.296 570.411Q500.49 569.833 499.713 569.216Q498.936 568.598 498.191 567.943Q497.446 567.288 496.735 566.596Q496.023 565.905 495.347 565.179Q494.67 564.453 494.031 563.695Q493.392 562.936 492.79 562.147Q492.189 561.358 491.628 560.539Q491.067 559.721 490.547 558.876Q490.028 558.031 489.551 557.161Q489.073 556.291 488.64 555.399Q488.207 554.506 487.818 553.594Q487.43 552.681 487.087 551.75Q486.744 550.818 486.448 549.872Q486.152 548.925 485.903 547.964Q485.655 547.004 485.454 546.032Q485.253 545.06 485.101 544.08C483.542 534.152 485.824 524.037 491.84 515.941C500.803 503.882 512.797 500.413 526.878 498.292Z"/>
	<path fill="#738794" d="M518.511 506.128C526.874 505.439 534.981 505.557 542.835 508.889Q543.621 509.213 544.389 509.577Q545.157 509.941 545.906 510.343Q546.655 510.745 547.382 511.184Q548.11 511.623 548.814 512.099Q549.519 512.575 550.198 513.085Q550.878 513.596 551.53 514.14Q552.183 514.685 552.808 515.261Q553.432 515.838 554.026 516.445Q554.621 517.053 555.184 517.69Q555.747 518.326 556.277 518.991Q556.807 519.655 557.302 520.346Q557.798 521.036 558.258 521.75Q558.719 522.465 559.142 523.202Q559.566 523.939 559.951 524.696Q560.337 525.454 560.684 526.23Q561.031 527.005 561.338 527.798Q561.603 528.5 561.834 529.214Q562.064 529.929 562.259 530.653Q562.454 531.378 562.613 532.111Q562.773 532.845 562.896 533.585Q563.019 534.326 563.105 535.071Q563.192 535.817 563.242 536.565Q563.292 537.314 563.305 538.065Q563.318 538.815 563.294 539.565Q563.27 540.315 563.21 541.063Q563.149 541.812 563.052 542.556Q562.955 543.3 562.821 544.038Q562.688 544.777 562.518 545.508Q562.348 546.239 562.143 546.961Q561.938 547.683 561.697 548.394Q561.456 549.105 561.181 549.803Q560.906 550.501 560.597 551.185C555.633 562.073 546.421 566.789 535.873 570.855C528.251 571.406 520.851 571.33 513.631 568.532C505.047 565.206 497.79 558.588 494.234 550.026Q493.939 549.323 493.679 548.607Q493.42 547.89 493.196 547.161Q492.971 546.433 492.784 545.694Q492.596 544.956 492.445 544.208Q492.294 543.461 492.18 542.708Q492.065 541.954 491.989 541.196Q491.912 540.438 491.873 539.676Q491.834 538.915 491.832 538.153Q491.83 537.391 491.866 536.629Q491.903 535.868 491.976 535.109Q492.05 534.351 492.161 533.597Q492.272 532.843 492.42 532.095Q492.568 531.347 492.753 530.608Q492.937 529.868 493.158 529.139Q493.379 528.409 493.636 527.692Q493.893 526.974 494.185 526.27C498.838 515.28 508.023 510.275 518.511 506.128Z"/>
	<path fill="#1D3C53" d="M683.586 387.761C698.894 367.722 716.988 356.007 742.265 352.607Q743.409 352.455 744.557 352.331Q745.704 352.207 746.854 352.112Q748.005 352.017 749.157 351.95Q750.309 351.883 751.463 351.844Q752.616 351.805 753.77 351.795Q754.924 351.785 756.078 351.803Q757.232 351.822 758.385 351.868Q759.539 351.915 760.69 351.99Q761.842 352.065 762.992 352.169Q764.141 352.272 765.288 352.404Q766.434 352.536 767.577 352.696Q768.72 352.856 769.859 353.044Q770.998 353.232 772.131 353.448Q773.265 353.664 774.393 353.909Q775.521 354.152 776.643 354.424Q777.765 354.696 778.879 354.995Q779.994 355.295 781.101 355.621Q782.208 355.948 783.307 356.302Q784.405 356.656 785.495 357.037Q786.584 357.418 787.664 357.825Q788.744 358.233 789.813 358.667Q790.883 359.101 791.941 359.561Q792.999 360.022 794.046 360.508Q795.093 360.994 796.127 361.506Q797.162 362.018 798.183 362.555Q799.205 363.093 800.213 363.655Q801.22 364.217 802.214 364.804Q803.208 365.391 804.187 366.002Q805.166 366.613 806.13 367.249Q807.093 367.884 808.041 368.543Q808.989 369.201 809.92 369.883Q810.851 370.565 811.765 371.27C825.961 382.185 835.56 396.104 841.55 412.883C844.711 431.748 844.347 450.361 835.471 467.722C825.382 487.456 805.953 501.996 785.18 508.748Q784.132 509.085 783.077 509.397Q782.021 509.708 780.959 509.994Q779.896 510.279 778.826 510.538Q777.757 510.797 776.681 511.03Q775.605 511.263 774.525 511.47Q773.444 511.676 772.358 511.856Q771.272 512.036 770.182 512.189Q769.093 512.342 767.999 512.468Q766.906 512.595 765.81 512.694Q764.714 512.793 763.616 512.866Q762.518 512.938 761.418 512.984Q760.319 513.03 759.218 513.048Q758.118 513.067 757.018 513.058Q755.917 513.05 754.817 513.014Q753.717 512.979 752.618 512.916Q751.52 512.854 750.423 512.764Q749.326 512.675 748.232 512.558Q747.137 512.442 746.046 512.299Q744.955 512.156 743.868 511.986Q742.781 511.816 741.698 511.619Q740.615 511.422 739.537 511.199Q738.46 510.976 737.388 510.727Q736.316 510.477 735.251 510.202Q734.185 509.926 733.127 509.624Q732.068 509.322 731.018 508.995Q729.967 508.667 728.925 508.314Q727.883 507.96 726.85 507.581Q725.816 507.202 724.793 506.798Q723.769 506.394 722.756 505.965Q721.742 505.536 720.74 505.082Q719.737 504.628 718.746 504.15Q717.755 503.672 716.776 503.169C696.863 492.995 680.948 475.443 674.117 454.011C666.512 430.15 672.493 409.284 683.586 387.761Z"/>
	<path fill="#F7F7F6" d="M801.652 414.345C806.473 414.621 811.234 414.719 815.608 417.008C820.27 419.447 824.231 423.731 825.693 428.844C826.757 432.563 826.34 436.715 824.332 440.046C820.655 446.145 814.645 447.814 808.154 449.284C802.541 449.275 796.892 449.242 791.897 446.35C787.544 443.83 784.052 439.981 782.771 435.04Q782.596 434.344 782.492 433.634Q782.388 432.924 782.357 432.207Q782.325 431.49 782.367 430.773Q782.408 430.057 782.522 429.348Q782.635 428.64 782.82 427.946Q783.005 427.253 783.259 426.582Q783.513 425.91 783.833 425.268Q784.154 424.626 784.538 424.02C788.435 417.857 794.94 415.9 801.652 414.345Z"/>
	<path fill="#F7F7F6" d="M752.053 457.145C756.725 456.901 761.95 456.537 766.389 458.218C771.953 460.324 777.143 464.364 779.451 469.982C780.866 473.423 780.985 477.435 779.435 480.853C776.562 487.193 770.814 489.581 764.676 491.826C760.332 492.034 755.562 492.532 751.363 491.21C746.07 489.544 740.881 486.165 738.334 481.089C736.537 477.508 736.194 473.656 737.514 469.86C739.948 462.864 745.81 460.058 752.053 457.145Z"/>
	<path fill="#F7F7F6" d="M707.375 414.155C712.062 414.085 716.661 414.082 721.11 415.759C726.307 417.719 731.317 421.987 733.458 427.179C734.924 430.736 735.101 434.461 733.6 438.036C730.928 444.399 725.053 446.986 719.011 449.327C713.839 449.709 708.149 449.829 703.28 447.817C698.102 445.677 693.363 441.866 691.312 436.519C689.924 432.902 690.024 428.983 691.705 425.483C694.835 418.968 701.025 416.507 707.375 414.155Z"/>
	<path fill="#F7F7F6" d="M752.519 371.073C757.434 370.901 762.522 370.978 767.063 373.075C772.393 375.535 777.27 379.995 779.149 385.671C780.417 389.504 780.313 393.195 778.477 396.823C775.545 402.615 769.866 404.937 764.069 406.951C758.792 407.259 753.264 407.562 748.349 405.346C743.352 403.093 738.895 399.217 736.968 393.974C735.544 390.099 735.638 386.096 737.41 382.356C740.445 375.951 746.2 373.361 752.519 371.073Z"/>
	<path fill="#102B40" d="M422.579 333.579C436.188 328.924 457.082 324.63 470.663 331.17C475.161 333.337 479.35 337.086 480.909 341.938C481.9 345.025 482.388 348.437 482.963 351.627C501.585 359.801 512.491 369.073 525.045 384.922C526.875 387.491 528.527 390.318 531.863 390.901C533.543 391.195 535.314 391.222 537.015 391.273C534.323 391.579 531.385 391.344 529.273 393.077C537.487 419.529 541.205 439.686 527.587 465.525Q527.107 466.438 526.605 467.339Q526.103 468.24 525.579 469.128Q525.054 470.016 524.508 470.891Q523.962 471.766 523.395 472.627Q522.827 473.488 522.238 474.335Q521.649 475.182 521.04 476.014Q520.43 476.846 519.8 477.662Q519.17 478.479 518.52 479.28Q517.87 480.08 517.2 480.865Q516.53 481.649 515.841 482.417Q515.152 483.184 514.445 483.935Q513.737 484.685 513.011 485.417Q512.285 486.15 511.541 486.864Q510.796 487.578 510.035 488.274Q509.273 488.969 508.495 489.646Q507.716 490.322 506.921 490.979Q506.126 491.636 505.315 492.274Q504.504 492.911 503.677 493.527Q502.851 494.144 502.009 494.74Q501.168 495.337 500.311 495.912Q499.455 496.487 498.585 497.041Q497.715 497.594 496.831 498.126Q495.948 498.658 495.051 499.168Q494.155 499.678 493.246 500.166Q492.337 500.653 491.416 501.118Q490.496 501.583 489.564 502.025Q488.632 502.467 487.689 502.886Q486.747 503.305 485.794 503.7Q484.841 504.095 483.879 504.467Q482.917 504.838 481.946 505.186Q480.975 505.533 479.995 505.857Q479.016 506.18 478.029 506.479C453.901 513.763 426.606 510.335 404.573 498.315C385.224 487.76 369.675 469.567 363.508 448.281C358.802 432.039 360.023 414.151 364.495 397.991C367.759 390.949 372.021 384.692 376.853 378.651C386.787 367.191 397.813 359.832 411.403 353.318C415.18 351.766 418.021 350.634 419.771 346.641C421.461 342.783 421.874 337.736 422.579 333.579Z"/>
	<path fill="#738794" d="M411.403 353.318C414.348 353.701 417.479 353.783 420.041 355.389C401.994 362.935 387.617 372.846 376.159 388.925C375.626 385.468 376.335 382.072 376.853 378.651C386.787 367.191 397.813 359.832 411.403 353.318Z"/>
	<path fill="#405E75" d="M422.579 333.579C436.188 328.924 457.082 324.63 470.663 331.17C475.161 333.337 479.35 337.086 480.909 341.938C481.9 345.025 482.388 348.437 482.963 351.627C501.585 359.801 512.491 369.073 525.045 384.922C526.875 387.491 528.527 390.318 531.863 390.901C533.543 391.195 535.314 391.222 537.015 391.273C534.323 391.579 531.385 391.344 529.273 393.077C537.487 419.529 541.205 439.686 527.587 465.525Q527.107 466.438 526.605 467.339Q526.103 468.24 525.579 469.128Q525.054 470.016 524.508 470.891Q523.962 471.766 523.395 472.627Q522.827 473.488 522.238 474.335Q521.649 475.182 521.04 476.014Q520.43 476.846 519.8 477.662Q519.17 478.479 518.52 479.28Q517.87 480.08 517.2 480.865Q516.53 481.649 515.841 482.417Q515.152 483.184 514.445 483.935Q513.737 484.685 513.011 485.417Q512.285 486.15 511.541 486.864Q510.796 487.578 510.035 488.274Q509.273 488.969 508.495 489.646Q507.716 490.322 506.921 490.979Q506.126 491.636 505.315 492.274Q504.504 492.911 503.677 493.527Q502.851 494.144 502.009 494.74Q501.168 495.337 500.311 495.912Q499.455 496.487 498.585 497.041Q497.715 497.594 496.831 498.126Q495.948 498.658 495.051 499.168Q494.155 499.678 493.246 500.166Q492.337 500.653 491.416 501.118Q490.496 501.583 489.564 502.025Q488.632 502.467 487.689 502.886Q486.747 503.305 485.794 503.7Q484.841 504.095 483.879 504.467Q482.917 504.838 481.946 505.186Q480.975 505.533 479.995 505.857Q479.016 506.18 478.029 506.479C453.901 513.763 426.606 510.335 404.573 498.315C385.224 487.76 369.675 469.567 363.508 448.281C358.802 432.039 360.023 414.151 364.495 397.991C367.759 390.949 372.021 384.692 376.853 378.651C376.335 382.072 375.626 385.468 376.159 388.925C375.929 389.349 375.726 389.789 375.516 390.224C365.949 410.003 361.92 431.4 369.409 452.606C376.507 472.708 392.031 488.811 411.138 497.912C432.857 508.257 458.664 510.207 481.403 502.038C501.119 494.955 516.841 481.084 525.694 462.054C534.319 443.514 536.018 423.78 528.852 404.443C521.023 383.318 504.289 367.282 484.01 358.091C466.316 350.073 438.285 348.496 420.041 355.389C417.479 353.783 414.348 353.701 411.403 353.318C415.18 351.766 418.021 350.634 419.771 346.641C421.461 342.783 421.874 337.736 422.579 333.579Z"/>
	<path fill="#1D3C53" d="M433.537 335.259C443.29 334.781 454.173 333.51 463.667 336.102C467.324 337.101 472.929 339.173 474.795 342.777C475.766 344.652 475.484 345.157 474.948 347.059C472.316 348.341 471.424 348.005 468.624 347.583C454 345.282 441.118 346.973 426.521 347.637C425.49 345.175 426.349 342.117 427.301 339.607C428.244 337.122 431.261 336.196 433.537 335.259Z"/>
	<path fill="#7DBE97" d="M427.663 381.078L470.506 381.074C469.881 390.625 468.808 400.049 467.599 409.537C474.926 408.438 490.933 404.201 497.386 407.72C502.611 415.622 501.043 434.977 499.162 443.992C498.806 445.699 498.112 448.706 496.585 449.673C491.739 452.743 472.31 445.843 466.912 444.096L466.394 443.926C468.729 454.94 470.42 465.93 471.871 477.089C462.941 476.965 436.978 480.184 431.675 474.556C429.363 472.102 428.574 468.235 428.878 464.961C429.28 460.634 430.269 455.867 431.444 451.688C431.926 449.687 432.232 447.961 432.152 445.898C427.007 443.015 415.852 450.099 409.863 451.04C407.383 451.43 405.456 451.155 403.405 449.619C398.161 442.323 399.725 429.3 399.642 420.614C399.571 416.74 399.11 412.467 400.674 408.849C403.362 406.714 404.462 406.898 407.806 406.572C414.729 407.657 424.11 411.554 430.677 408.816C431.995 405.986 431.038 404.059 430.444 401.042L427.663 381.078Z"/>
	<defs>
		<linearGradient id="gradient_0" gradientUnits="userSpaceOnUse" x1="1766.3002" y1="467.04691" x2="868.95062" y2="679.70221">
			<stop offset="0" stop-color="#ECAB37"/>
			<stop offset="1" stop-color="#B64144"/>
		</linearGradient>
	</defs>
	<path fill="url(#gradient_0)" d="M1418.72 388.879L1419.31 388.489C1425.26 384.493 1430.55 378.862 1435.91 374.089Q1446.55 364.475 1458.26 356.195Q1460.36 354.695 1462.5 353.248Q1464.64 351.802 1466.82 350.409Q1468.99 349.017 1471.2 347.679Q1473.41 346.342 1475.65 345.061Q1477.89 343.779 1480.17 342.555Q1482.44 341.33 1484.74 340.163Q1487.05 338.996 1489.38 337.887Q1491.71 336.779 1494.07 335.729Q1496.43 334.679 1498.82 333.689Q1501.2 332.699 1503.61 331.769Q1506.02 330.839 1508.45 329.971Q1510.88 329.102 1513.34 328.294Q1515.79 327.487 1518.26 326.741Q1520.74 325.996 1523.23 325.313Q1525.72 324.629 1528.22 324.009Q1530.73 323.389 1533.25 322.832Q1535.77 322.275 1538.31 321.781Q1540.84 321.288 1543.39 320.858Q1545.94 320.429 1548.49 320.063Q1551.05 319.698 1553.61 319.397Q1556.18 319.096 1558.75 318.86Q1561.32 318.623 1563.9 318.451Q1566.48 318.28 1569.06 318.173Q1571.64 318.066 1574.22 318.024Q1576.8 317.982 1579.38 318.005Q1581.97 318.028 1584.55 318.116Q1587.13 318.204 1589.71 318.357Q1592.28 318.51 1594.86 318.728Q1597.43 318.945 1600 319.227Q1602.56 319.51 1605.12 319.856Q1607.68 320.203 1610.23 320.614Q1612.78 321.025 1615.32 321.5Q1617.7 321.943 1620.06 322.444Q1622.43 322.946 1624.78 323.505Q1627.13 324.064 1629.47 324.68Q1631.81 325.297 1634.13 325.971Q1636.45 326.644 1638.76 327.375Q1641.06 328.105 1643.35 328.892Q1645.64 329.679 1647.9 330.521Q1650.17 331.364 1652.41 332.262Q1654.66 333.16 1656.88 334.112Q1659.1 335.065 1661.3 336.072Q1663.5 337.079 1665.67 338.139Q1667.85 339.2 1669.99 340.313Q1672.14 341.426 1674.26 342.592Q1676.38 343.758 1678.46 344.975Q1680.55 346.192 1682.61 347.461Q1684.67 348.729 1686.7 350.047Q1688.73 351.365 1690.72 352.733Q1692.71 354.1 1694.67 355.516Q1696.63 356.932 1698.56 358.396Q1700.48 359.86 1702.37 361.37Q1704.26 362.88 1706.11 364.436Q1707.96 365.993 1709.77 367.594Q1711.58 369.195 1713.36 370.84Q1715.13 372.485 1716.86 374.173Q1718.59 375.861 1720.28 377.591Q1721.97 379.321 1723.62 381.092Q1725.26 382.863 1726.86 384.673Q1728.47 386.484 1730.02 388.334Q1731.58 390.183 1733.09 392.07Q1734.61 393.957 1736.07 395.881Q1737.54 397.804 1738.95 399.763Q1740.37 401.722 1741.74 403.715C1771.23 447.074 1782.08 497.097 1772.14 548.601C1762.1 600.579 1731.74 644.074 1687.97 673.488C1641.69 704.596 1584.56 713.57 1530.23 702.771C1502.11 697.18 1472.66 685.5 1448.94 669.284C1440.99 663.849 1431.17 653.534 1422.22 650.62C1374.57 649.576 1326.81 650.149 1279.15 650.154L1049.19 650.03C1002.62 649.985 955.288 651.687 908.79 649.575C899.463 646.731 872.899 651.058 867.724 647.804C864.081 637.685 861.26 627.459 858.493 617.079C859.729 609.928 853.49 601.97 856.1 595.765L860.7 597.012C858.718 589.749 857.425 581.512 854.387 574.657C852.65 570.736 851.042 568.763 847.021 567.172L845.891 567.076L845.861 564.236C845.09 561.531 844.298 559.627 842.658 557.295C839.653 555.16 835.357 555.75 831.817 555.808C834.454 555.528 836.951 555.084 839.534 554.508C840.032 545.934 833.414 533.096 830.299 524.957Q846.63 525.053 862.96 524.854C876.256 525.506 889.373 525.717 902.668 524.698C906.882 524.613 911.11 524.454 915.325 524.499C912.85 525.013 910.147 524.909 908.642 526.996C914.322 530.27 965.152 531.419 975.11 531.599C998.307 532.018 1021.77 530.869 1045.03 530.905L1218.56 531.484C1218.81 531.594 1219.07 531.702 1219.32 531.815C1227.67 535.598 1233.62 543.25 1242.28 546.562C1260.14 553.398 1282.75 554.855 1301.73 556.145C1321.82 556.462 1344.16 549.707 1361.91 540.622C1374.66 534.098 1401.43 516.368 1406.02 502.11C1424.18 486.608 1430.92 438.21 1426.97 415.859C1426.19 411.437 1418.52 389.784 1418.72 388.879Z"/>
	<path fill="#F7F7F6" d="M1243.2 606.497C1245.2 606.171 1247.34 606.016 1249.27 606.751C1251.77 607.701 1252.9 609.085 1253.91 611.427C1252.98 614.087 1252.55 614.248 1250.22 615.908C1249.48 617.026 1248.07 617.321 1246.86 617.77L1244.79 616.446C1242.97 612.993 1243.01 610.338 1243.2 606.497Z"/>
	<path fill="#B0322E" d="M1235.77 613.94L1238.24 612.402L1239.29 613.486C1239.21 615.825 1239.12 617.319 1237.28 619.071C1233.48 622.684 1227.12 623.477 1222.13 623.148C1217.94 622.872 1213.75 622.21 1209.57 621.766L1208.62 620.14L1209.61 616.959C1217.31 617.594 1228.28 619.757 1235.36 616.364L1235.77 613.94Z"/>
	<path fill="#BB483D" d="M1547.71 481.883C1549.5 475.743 1553.35 469.283 1555.71 463.219C1561.85 447.48 1564.7 432.014 1566.15 415.267C1566.59 410.243 1567.63 388.877 1570.09 385.943C1571.29 388.055 1571.26 388.703 1571.26 391.168C1574.28 395.616 1571.19 422.296 1570.05 428.298C1567.88 439.705 1559.41 474.645 1549.08 481.196C1548.52 481.556 1548.38 481.583 1547.71 481.883Z"/>
	<path fill="#B0322E" d="M1112.75 563.25C1112.93 563.121 1113.11 562.994 1113.28 562.863C1115.06 561.538 1117.87 557.706 1119.59 557.124L1119.97 557.708L1119.31 557.177C1119.37 557.394 1119.43 557.61 1119.48 557.828C1120.19 560.828 1119.85 563.344 1119.4 566.357C1122.86 571.918 1122.14 609.46 1120.46 617.137C1122.6 617.539 1124.68 617.921 1126.86 618.126C1128.66 618.296 1129.85 619.055 1131.32 620.053L1130.77 620.891L1128.54 621.078L1129.49 619.738L1128.21 621.157C1125.23 621.092 1122.23 621.467 1119.85 619.437C1119 617.082 1118.31 614.769 1117.69 612.343L1116.33 611.976C1111.28 619.104 1108.36 620.725 1099.57 622.275C1095.19 623.048 1087.78 623.821 1084.01 620.77C1083.09 620.029 1082.43 619.031 1082.19 617.891C1090.8 618.035 1103.62 619.55 1110.56 613.481C1115.82 608.879 1116.48 598.02 1116.8 591.401C1117.15 583.96 1117.99 568.991 1112.75 563.25Z"/>
	<path fill="#E38F38" d="M1406.02 502.11C1407.02 503.67 1407.47 504.74 1407.77 506.574C1408.94 505.644 1410.07 504.779 1411.35 504.004C1411.68 505.739 1411.35 506.103 1410.42 507.526C1406.64 513.257 1400.47 518.181 1395.34 522.672C1376.23 539.409 1358.5 551.364 1333.2 556.24C1325.17 557.788 1310.04 560.544 1302.42 558.107L1301.73 556.145C1321.82 556.462 1344.16 549.707 1361.91 540.622C1374.66 534.098 1401.43 516.368 1406.02 502.11Z"/>
	<path fill="#F7F7F6" d="M1119.4 566.357C1120.59 562.38 1120.67 556.592 1124.58 554.297C1125.1 553.987 1125.67 553.782 1126.25 553.594C1128.66 555.061 1129.07 556.403 1129.79 559.13C1133.82 574.361 1131.58 599.004 1130.44 615.019C1128.82 616.791 1127.85 616.993 1125.44 617.165C1123.8 617.282 1122.1 617.186 1120.46 617.137C1122.14 609.46 1122.86 571.918 1119.4 566.357Z"/>
	<path fill="#F7F7F6" d="M1015.3 616.937C1015.3 600.324 1013.51 577.105 1015.56 561.377C1015.94 558.48 1016.53 555.389 1018.95 553.524L1021.1 553.902C1021.78 554.638 1022.41 555.402 1022.93 556.266C1027.33 563.634 1027.26 592.356 1025.09 600.76C1025.85 603.321 1026.03 605.579 1028.62 606.983C1032.67 609.177 1038.3 606.525 1041.93 609.541C1042.17 610.88 1042.34 611.735 1042.02 613.087L1041.49 615.543C1036.73 619.437 1021.57 617.255 1015.3 616.937Z"/>
	<path fill="#F7F7F6" d="M1209.59 561.182L1209.74 560.535C1210.16 558.524 1210.34 556.75 1210.29 554.699C1215.94 552.571 1231.34 552.719 1236.75 555.481C1238.25 556.249 1238.66 556.736 1239.14 558.319C1237.97 560.87 1236.11 561.825 1233.72 563.02C1233.56 563.1 1233.41 563.183 1233.25 563.261C1229.12 565.294 1223.09 564.254 1218.61 563.967C1221.73 569.506 1219.6 581.172 1222.08 581.732C1225.89 582.595 1229.33 581.266 1232.87 583.707C1233.81 585.955 1233.77 586.213 1233.25 588.605C1227 595.377 1219.22 585.422 1219.95 600.386C1220.08 602.95 1220.53 605.083 1222.3 607.045C1227.33 610.052 1232.08 604.705 1236.54 610.53C1236.31 611.664 1236.13 612.838 1235.77 613.94L1235.36 616.364C1228.28 619.757 1217.31 617.594 1209.61 616.959L1208.76 613.891C1209.34 613.258 1209.75 612.564 1210.07 611.772C1212.51 605.796 1212.16 566.872 1209.59 561.182Z"/>
	<path fill="#BB483D" d="M1457.83 520.115C1468.09 534.627 1446.9 595.862 1457.23 606.765C1458.88 608.502 1463.34 609.236 1465.56 609.612C1485.87 613.062 1509.95 610.294 1528.61 613.392C1538.5 615.033 1547.72 620.629 1557.44 623.242C1573.07 627.441 1651.93 642.547 1663.93 634.796C1664.61 634.363 1664.54 634.381 1665.01 633.895L1667.43 635.613C1665.99 637.189 1664.35 638.168 1662.41 639.013C1645.81 646.245 1581.76 635.738 1562.49 630.641C1549.26 627.142 1537.1 620.826 1523.36 618.732C1502.01 615.475 1474.04 619.953 1454.1 611.948C1447.94 605.322 1457.88 533.794 1457.83 520.618C1457.83 520.451 1457.83 520.283 1457.83 520.115Z"/>
	<path fill="#F7F7F6" d="M1043.36 560.749L1043.94 559.512C1045.4 556.393 1045.37 555.473 1048.61 554.294C1050.69 554.638 1051.91 554.507 1053.33 556.203C1057.92 561.692 1055.19 580.512 1054.91 587.604C1054.66 593.978 1053.49 602.243 1058.14 607.274C1060.46 608.338 1061.66 608.424 1064.14 607.811C1074.26 600.147 1064.88 569.377 1068.38 557.941C1069.19 555.288 1070.33 554.798 1072.62 553.64C1074.98 554.108 1075.16 554.212 1076.8 555.974L1076.63 559.79C1077.34 558.769 1078.17 557.923 1079.02 557.019L1080.66 557.876C1086.86 566.924 1082.41 600.518 1082.65 612.956C1082.11 613.978 1081.61 615.093 1080.93 616.033C1080.11 614.261 1079.78 611.354 1079.68 609.389C1079.67 609.145 1079.66 608.902 1079.65 608.659C1075.18 611.996 1074.37 618.933 1068.8 621.893C1058.5 627.364 1053.3 616.584 1045.3 614.537C1044.07 614.222 1043.12 613.707 1042.02 613.087C1042.34 611.735 1042.17 610.88 1041.93 609.541C1038.3 606.525 1032.67 609.177 1028.62 606.983C1026.03 605.579 1025.85 603.321 1025.09 600.76C1025.9 601.436 1026.79 602.086 1027.55 602.817C1028.03 603.286 1028.4 603.869 1028.97 604.263C1031.46 606 1036.36 606.547 1039.29 605.977C1049.99 597.612 1036.75 571.037 1043.36 560.749Z"/>
	<path fill="#B0322E" d="M1076.63 559.79C1077.34 558.769 1078.17 557.923 1079.02 557.019L1080.66 557.876C1086.86 566.924 1082.41 600.518 1082.65 612.956C1082.11 613.978 1081.61 615.093 1080.93 616.033C1080.11 614.261 1079.78 611.354 1079.68 609.389C1079.67 609.145 1079.66 608.902 1079.65 608.659C1075.18 611.996 1074.37 618.933 1068.8 621.893C1058.5 627.364 1053.3 616.584 1045.3 614.537C1044.07 614.222 1043.12 613.707 1042.02 613.087C1042.34 611.735 1042.17 610.88 1041.93 609.541C1038.3 606.525 1032.67 609.177 1028.62 606.983C1026.03 605.579 1025.85 603.321 1025.09 600.76C1025.9 601.436 1026.79 602.086 1027.55 602.817C1028.03 603.286 1028.4 603.869 1028.97 604.263C1031.46 606 1036.36 606.547 1039.29 605.977C1049.99 597.612 1036.75 571.037 1043.36 560.749C1045.85 569.342 1047.12 595.421 1043.34 603.145C1046.63 609.038 1049.46 614.148 1055.69 617.418C1058.83 619.068 1062.17 619.529 1065.57 618.381C1070.17 616.826 1073.52 612.138 1075.34 607.86C1080.2 596.392 1081.29 571.516 1076.63 559.79Z"/>
	<path fill="#F7F7F6" d="M1171.03 561.649C1172.33 560.33 1172.47 558.478 1173.57 557.079C1175.26 554.928 1176.63 554.839 1179.15 554.314C1187.48 559.315 1178.92 595.869 1185.51 607.41C1187.69 608.999 1187.82 608.997 1190.52 608.883C1192.31 607.541 1194.64 605.98 1195.44 603.81C1199.01 594.068 1193.24 570.532 1197.02 557.776C1197.77 555.226 1198.13 554.358 1200.45 553.082L1202.31 553.878C1204.47 556.787 1204.81 557.318 1204.6 560.937L1208.04 555.495L1208.71 555.64C1209.06 557.434 1209.59 559.353 1209.59 561.182C1212.16 566.872 1212.51 605.796 1210.07 611.772C1209.75 612.564 1209.34 613.258 1208.76 613.891L1207.8 609.036L1206.7 608.369C1205.37 612.848 1203.92 617.675 1199.87 620.476C1190.63 626.881 1178.62 615.877 1169.46 614.256C1169.2 614.21 1168.94 614.171 1168.68 614.128C1163.7 605.466 1175.81 574.141 1165.89 561.983C1167.62 561.678 1169.35 561.078 1171.03 561.649Z"/>
	<path fill="#B0322E" d="M1204.6 560.937L1208.04 555.495L1208.71 555.64C1209.06 557.434 1209.59 559.353 1209.59 561.182C1212.16 566.872 1212.51 605.796 1210.07 611.772C1209.75 612.564 1209.34 613.258 1208.76 613.891L1207.8 609.036L1206.7 608.369C1205.37 612.848 1203.92 617.675 1199.87 620.476C1190.63 626.881 1178.62 615.877 1169.46 614.256C1169.2 614.21 1168.94 614.171 1168.68 614.128C1163.7 605.466 1175.81 574.141 1165.89 561.983C1167.62 561.678 1169.35 561.078 1171.03 561.649C1176.01 567.568 1171.12 596.549 1174.92 607.778C1176.28 611.811 1178.5 615.777 1182.54 617.588C1186.86 619.528 1192.67 617.888 1196.81 616.207C1200.64 614.648 1202.38 612.661 1203.9 608.82C1207.79 598.972 1208.76 570.294 1204.6 560.937Z"/>
	<path fill="#F7F7F6" d="M977.855 565.338C981.149 560.167 984.612 554.539 991.083 553.197C994.71 552.445 998.182 553.38 1001.18 555.482C1007.47 559.88 1010.28 568.006 1011.44 575.264C1013.23 586.463 1013.39 601.82 1006.59 611.344C1002.66 616.84 998.88 617.847 992.384 618.838L991.786 618.928C988.743 617.741 985.507 616.41 983.152 614.073C972.295 603.299 978.116 579.404 977.855 565.338Z"/>
	<path fill="#BB483D" d="M990.212 563.343L995.466 564.296C998.095 565.966 999.287 567.783 1000.34 570.672C1004.27 581.519 1002.1 597.962 997.325 608.211C996.111 608.061 994.773 607.921 993.604 607.529C991.155 606.709 989.715 604.92 988.68 602.648C983.852 592.046 986.052 573.935 990.212 563.343Z"/>
	<path fill="#F7F7F6" d="M945.636 555.793C950.436 552.401 965.236 553.232 971.198 554.231C972.117 554.385 972.567 554.595 973.169 555.337C974.442 556.905 975.029 560.004 975.623 561.954C977.083 563.24 977.231 563.589 977.855 565.338C978.116 579.404 972.295 603.299 983.152 614.073C985.507 616.41 988.743 617.741 991.786 618.928L991.045 620.353C985.604 619.657 980.676 615.317 976.454 612.055C975.778 613.381 974.637 615.526 973.331 616.218C967.112 619.512 956.928 619.485 950.396 617.171C947.098 616.003 946.775 614.33 945.551 611.418C948.719 600.41 946.593 567.995 945.636 555.793Z"/>
	<path fill="#BB483D" d="M975.623 561.954C977.083 563.24 977.231 563.589 977.855 565.338C978.116 579.404 972.295 603.299 983.152 614.073C985.507 616.41 988.743 617.741 991.786 618.928L991.045 620.353C985.604 619.657 980.676 615.317 976.454 612.055C976.148 611.704 975.84 611.352 975.51 611.022C975.357 610.869 975.199 610.719 975.045 610.567C974.88 610.403 974.723 610.233 974.553 610.074C970.327 606.128 961.332 607.776 956 608.093L956 591.91C959.637 591.591 964.437 591.566 967.662 589.632C969.764 588.37 970.273 587.908 970.833 585.573C970.568 585.221 970.417 585.005 970.1 584.668C966.765 581.119 960.546 581.853 956.069 581.852L956.069 563.603C960.93 563.583 971.733 564.651 975.623 561.954Z"/>
	<path fill="#F7F7F6" d="M1080.66 557.876C1081.01 557.019 1081.43 555.214 1082.26 554.856C1088.66 552.105 1100.49 553.415 1106.7 555.928C1109.27 556.965 1110.83 558.365 1112.43 560.625L1112.75 563.25C1117.99 568.991 1117.15 583.96 1116.8 591.401C1116.48 598.02 1115.82 608.879 1110.56 613.481C1103.62 619.55 1090.8 618.035 1082.19 617.891L1080.93 616.033C1081.61 615.093 1082.11 613.978 1082.65 612.956C1082.41 600.518 1086.86 566.924 1080.66 557.876Z"/>
	<path fill="#BB483D" d="M1091.89 564.492C1093.82 564.154 1096.21 563.687 1098.16 563.85C1100.12 564.014 1101.68 565.222 1102.92 566.683C1107.58 572.159 1107.86 581.759 1107.26 588.578C1106.69 595.069 1106.98 601.102 1101.75 605.514C1101.16 606.722 1099.9 607.515 1098.88 608.377L1097.31 608.197C1094.51 606.179 1093.92 604.208 1093.05 601.004C1089.86 589.228 1096.28 575.935 1091.89 564.492Z"/>
	<path fill="#F7F7F6" d="M1134.3 564.646C1138.03 561.046 1141.61 557.372 1146.44 555.286C1150.42 553.562 1155.21 552.112 1159.38 554.117C1162.08 555.412 1165.05 559.153 1165.89 561.983C1175.81 574.141 1163.7 605.466 1168.68 614.128C1171.21 616.424 1173.21 618.497 1173.98 621.913C1169.16 623.663 1161.81 619.566 1157.41 617.659C1153.82 619.053 1150.46 620.314 1146.57 619.455C1128.22 615.401 1141.76 576.558 1134.3 564.646Z"/>
	<path fill="#BB483D" d="M1146.79 564.494C1148.25 564.228 1150.16 563.726 1151.64 563.843C1153.8 564.014 1154.99 564.829 1156.39 566.393C1161.2 571.784 1160.4 584.571 1159.89 591.401C1159.42 597.572 1159.55 604.198 1154.53 608.507L1154.13 609.387L1152 610.117C1151.01 609.703 1149.73 609.402 1149.03 608.583C1141.07 599.375 1146.25 575.851 1146.79 564.494Z"/>
	<path fill="#F7F7F6" d="M1358.67 562.5L1369.55 562.145C1373.79 565.554 1376.35 572.034 1378.67 576.844C1381.27 582.221 1386.69 593.316 1384.65 599.173C1386.38 597.584 1387.89 595.913 1389.11 593.895C1393.18 587.214 1401.7 570.131 1399.72 562.234L1414.07 562.525C1418.04 570.848 1416.88 600.894 1415.64 610.671C1415.28 613.519 1415.21 615.093 1412.94 616.876C1409.96 617.125 1407.63 617.3 1404.73 616.4C1402.27 614.566 1401.84 612.068 1401.09 609.27C1401.75 608.368 1402.34 607.448 1402.79 606.42C1404.56 602.321 1403.16 594.107 1401.68 590.005C1400.72 590.683 1395.22 609.54 1392.54 613.198C1390.78 615.602 1389.61 616.324 1386.71 616.702C1378.2 612.712 1375.61 596.192 1368.48 589.351L1367.74 588.654C1369.43 591.064 1370.35 593.148 1370.88 596.061C1371.95 601.913 1372.42 611.792 1368.85 616.911L1356.36 616.979C1362.99 604.863 1359.41 576.291 1358.67 562.5Z"/>
	<path fill="#F7F7F6" d="M1303.84 576.848C1310.32 569.947 1318.68 562.614 1328.63 562.361C1335.46 562.188 1342.22 565.421 1347.01 570.171Q1347.48 570.628 1347.92 571.107Q1348.36 571.586 1348.78 572.087Q1349.2 572.587 1349.59 573.107Q1349.99 573.628 1350.36 574.167Q1350.72 574.705 1351.06 575.262Q1351.41 575.818 1351.72 576.39Q1352.03 576.963 1352.32 577.55Q1352.6 578.137 1352.86 578.737Q1353.11 579.337 1353.34 579.95Q1353.57 580.562 1353.76 581.184Q1353.96 581.807 1354.12 582.438Q1354.29 583.069 1354.42 583.708Q1354.56 584.346 1354.66 584.991Q1354.76 585.635 1354.83 586.284Q1354.9 586.933 1354.94 587.584Q1354.98 588.235 1354.99 588.888C1354.99 596.48 1351.92 602.566 1346.84 607.995C1346.81 608.808 1346.66 609.306 1346.2 609.988C1343.95 613.325 1339.57 615.738 1335.68 616.533C1328.9 617.923 1318.5 616.129 1312.79 612.106C1298.95 602.344 1305.77 587.646 1303.97 577.475C1303.93 577.265 1303.88 577.057 1303.84 576.848Z"/>
	<path fill="#BB483D" d="M1320.94 575.499C1325.19 574.815 1329.26 574.129 1333.29 576.057C1337.21 577.929 1340.63 581.652 1342.05 585.769C1343.18 589.037 1343.04 592.488 1341.52 595.604C1339.48 599.794 1336.58 601.735 1332.32 603.299C1331.87 603.83 1331.62 604.312 1330.95 604.561C1327.9 605.698 1323.78 604.857 1320.92 603.42C1318.5 602.203 1316.78 600.082 1316.06 597.461C1313.81 589.305 1317.12 582.351 1320.94 575.499Z"/>
	<path fill="#F7F7F6" d="M910.004 554.069C913.526 554.019 917.074 553.937 920.594 554.088C929.568 554.475 935.155 557.396 941.193 563.931C943.13 561.402 944.397 558.704 945.636 555.793C946.593 567.995 948.719 600.41 945.551 611.418C939.395 611.554 933.224 620.47 925.863 621.711C921.256 622.487 915.987 620.741 911.229 620.705L911.231 619.897Q912.869 618.744 914.484 617.558C913.264 617.225 912.285 616.628 911.183 616.025C906.393 606.272 909.616 567.157 910.004 554.069Z"/>
	<path fill="#B0322E" d="M941.193 563.931C943.13 561.402 944.397 558.704 945.636 555.793C946.593 567.995 948.719 600.41 945.551 611.418C939.395 611.554 933.224 620.47 925.863 621.711C921.256 622.487 915.987 620.741 911.229 620.705L911.231 619.897Q912.869 618.744 914.484 617.558C918.244 617.9 922.095 618.222 925.862 617.807C930.439 617.303 934.885 614.708 937.729 611.111C946.556 599.948 942.898 576.982 941.193 563.931Z"/>
	<path fill="#BB483D" d="M919.084 562.597C920.691 562.673 922.346 562.74 923.93 563.036C926.48 563.511 928.383 565.029 929.81 567.139C936.465 576.971 933.153 595.511 931.031 606.521C930.815 606.571 930.6 606.626 930.383 606.672C927.547 607.281 923.285 607.604 920.831 605.928C916.972 597.518 919.322 572.805 919.084 562.597Z"/>
	<path fill="#F7F7F6" d="M878.947 550.994C886.213 550.553 897.481 550.346 903.197 555.587C906.585 558.693 905.741 570.138 905.813 574.634C905.992 585.871 908.305 609.105 900.946 617.602L899.199 617.676C895.172 613.968 894.454 606.708 894.214 601.511C893.494 585.883 895.343 570.128 894.829 554.461C889.522 575.668 884.242 596.804 877.167 617.509L867.086 617.413C865.128 610.608 863.404 603.557 860.7 597.012C858.718 589.749 857.425 581.512 854.387 574.657C852.65 570.736 851.042 568.763 847.021 567.172C846.87 564.547 846.426 561.567 846.572 558.965C846.757 555.692 849.155 553.192 851.52 551.215C853.929 550.797 854.719 550.526 856.955 551.771C861.018 554.033 862.383 556.935 863.549 561.268L864.191 560.812C866.449 561.709 868.959 570.411 870.431 573.052C874.317 566.572 873.526 557.54 878.474 551.55C878.629 551.362 878.789 551.179 878.947 550.994Z"/>
	<path fill="#B0322E" d="M878.947 550.994C879.67 565.478 875.749 582.022 871.268 595.746C868.565 584.304 865.568 572.853 863.549 561.268L864.191 560.812C866.449 561.709 868.959 570.411 870.431 573.052C874.317 566.572 873.526 557.54 878.474 551.55C878.629 551.362 878.789 551.179 878.947 550.994Z"/>
	<path fill="#BB483D" d="M1270.9 615.899C1267.47 610.533 1261.88 606.808 1259.12 600.803C1256.15 594.32 1256.36 586.235 1258.97 579.678C1261.84 572.478 1267.56 566.323 1274.78 563.388Q1275.39 563.144 1276 562.931Q1276.62 562.718 1277.25 562.536Q1277.87 562.354 1278.51 562.204Q1279.15 562.053 1279.79 561.935Q1280.43 561.816 1281.08 561.729Q1281.72 561.642 1282.37 561.588Q1283.03 561.534 1283.68 561.512Q1284.33 561.49 1284.98 561.501Q1285.64 561.512 1286.29 561.555Q1286.94 561.598 1287.59 561.674Q1288.24 561.749 1288.88 561.857Q1289.52 561.965 1290.16 562.104Q1290.8 562.244 1291.43 562.415Q1292.06 562.587 1292.68 562.789Q1293.3 562.992 1293.91 563.225Q1294.52 563.458 1295.12 563.721C1297.48 564.773 1299.49 565.956 1300.46 568.479L1299.2 571.161C1301.69 571.691 1302.77 571.587 1304.46 573.605L1303.84 576.848C1303.88 577.057 1303.93 577.265 1303.97 577.475C1305.77 587.646 1298.95 602.344 1312.79 612.106C1318.5 616.129 1328.9 617.923 1335.68 616.533C1339.57 615.738 1343.95 613.325 1346.2 609.988C1346.66 609.306 1346.81 608.808 1346.84 607.995L1349.62 609.446C1349.13 612.356 1344.28 615.971 1341.81 617.758C1337.85 620.633 1333.72 622.356 1328.76 621.544C1321.15 620.296 1315.29 614.483 1307.3 614.065C1294.75 613.408 1282.35 631.723 1270.9 615.899Z"/>
	<path fill="#F7F7F6" d="M1270.9 615.899C1267.47 610.533 1261.88 606.808 1259.12 600.803C1256.15 594.32 1256.36 586.235 1258.97 579.678C1261.84 572.478 1267.56 566.323 1274.78 563.388Q1275.39 563.144 1276 562.931Q1276.62 562.718 1277.25 562.536Q1277.87 562.354 1278.51 562.204Q1279.15 562.053 1279.79 561.935Q1280.43 561.816 1281.08 561.729Q1281.72 561.642 1282.37 561.588Q1283.03 561.534 1283.68 561.512Q1284.33 561.49 1284.98 561.501Q1285.64 561.512 1286.29 561.555Q1286.94 561.598 1287.59 561.674Q1288.24 561.749 1288.88 561.857Q1289.52 561.965 1290.16 562.104Q1290.8 562.244 1291.43 562.415Q1292.06 562.587 1292.68 562.789Q1293.3 562.992 1293.91 563.225Q1294.52 563.458 1295.12 563.721C1297.48 564.773 1299.49 565.956 1300.46 568.479L1299.2 571.161C1298.5 573.735 1298.51 573.9 1296.36 575.457C1288.65 576.305 1277.77 571.763 1272.2 578.991C1269.62 582.329 1269.02 587.436 1269.69 591.477C1270.45 595.974 1272.73 600.284 1276.55 602.908C1279.03 604.614 1282.53 605.691 1285.53 605.108C1289.93 604.257 1292.02 601.737 1296.74 602.302C1299.09 603.807 1299.92 604.972 1300.96 607.546C1300.86 610.136 1300.93 611.063 1298.98 613.01C1295.54 616.462 1288.2 617.712 1283.51 617.382C1279.29 617.085 1275.11 616.2 1270.9 615.899Z"/>
	<path fill="#F7F7F6" d="M1571.26 391.168C1572.72 386.661 1572.87 382.042 1577.44 379.441C1583.31 376.097 1597.97 377.493 1604.21 379.607C1610.71 381.809 1615.96 386.254 1618.96 392.465C1627.12 409.384 1617.05 447.245 1610.85 464.201C1609.36 468.274 1607.66 472.226 1604.99 475.676C1628.39 478.328 1670.24 476.691 1690.52 481.847C1696.44 483.354 1702.79 486.272 1706.69 491.147C1709.11 494.163 1710.14 497.622 1709.7 501.469C1709.01 507.428 1705.12 513.173 1700.38 516.701C1697.59 518.779 1694.65 520.627 1691.41 521.922C1696.47 526.989 1700.73 531.122 1700.84 538.743C1700.93 544.478 1698.45 549.477 1694.43 553.464C1690.37 557.479 1686.51 558.682 1681.06 560.12C1685.8 566.388 1689.99 573.193 1688.72 581.395C1687.88 586.766 1684.3 591.7 1679.91 594.802C1676.95 596.899 1673.2 598.636 1669.77 599.874C1673.65 606.253 1677.48 613.8 1675.63 621.446C1674.28 627.032 1669.74 631.058 1665.01 633.895C1664.54 634.381 1664.61 634.363 1663.93 634.796C1651.93 642.547 1573.07 627.441 1557.44 623.242C1547.72 620.629 1538.5 615.033 1528.61 613.392C1509.95 610.294 1485.87 613.062 1465.56 609.612C1463.34 609.236 1458.88 608.502 1457.23 606.765C1446.9 595.862 1468.09 534.627 1457.83 520.115C1459.96 516.709 1461.86 512.605 1461.89 508.531C1482.46 507.746 1502.09 512.288 1522.99 509.531C1523.21 509.432 1523.42 509.335 1523.64 509.232C1532.77 504.819 1544.42 491.315 1547.71 481.883C1548.38 481.583 1548.52 481.556 1549.08 481.196C1559.41 474.645 1567.88 439.705 1570.05 428.298C1571.19 422.296 1574.28 395.616 1571.26 391.168Z"/>
</svg>
